<?xml version="1.0" encoding="UTF-8" standalone="no"?>
<!DOCTYPE svg PUBLIC "-//W3C//DTD SVG 1.1//EN" "http://www.w3.org/Graphics/SVG/1.1/DTD/svg11.dtd">
<svg width="100%" height="100%" viewBox="0 0 1321 325" version="1.1" xmlns="http://www.w3.org/2000/svg" xmlns:xlink="http://www.w3.org/1999/xlink" xml:space="preserve" xmlns:serif="http://www.serif.com/" style="fill-rule:evenodd;clip-rule:evenodd;stroke-linejoin:round;stroke-miterlimit:2;">
    <g transform="matrix(4.16667,0,0,4.16667,0,0)">
        <g>
            <clipPath id="_clip1">
                <rect x="0" y="0.833" width="316" height="77"/>
            </clipPath>
            <g clip-path="url(#_clip1)">
                <path d="M98.677,33.686C98.677,30.089 101.612,29.096 103.883,29.096C106.2,29.096 108.519,29.619 110.599,30.521L111.215,25.077C108.801,24.271 106.153,23.894 103.314,23.894C97.496,23.894 91.769,26.595 91.769,33.97C91.769,44.899 106.247,42.298 106.247,48.593C106.247,51.571 102.887,52.851 100.38,52.851C97.778,52.851 95.174,52.042 92.906,50.815L92.291,56.774C95.554,57.579 97.164,58.054 100.758,58.054C107.431,58.054 113.154,55.306 113.154,48.069C113.154,37.001 98.677,39.414 98.677,33.686ZM78.779,57.485L85.404,57.485L85.404,24.461L78.779,24.461L78.779,57.485ZM33.463,0.833L19.331,0.833L19.331,17.31L26.331,17.31L26.331,7.833L33.463,7.833C51.308,7.833 64.926,21.429 65.141,39.458C65.355,57.455 52.01,70.721 33.411,71.001C23.963,71.144 16.78,68.423 12.061,62.915C6.897,56.888 6.054,48.962 6.9,44.006C8.42,35.104 13.766,30.354 22.791,29.887C25.567,29.743 39.453,29.578 40.147,40.486C40.378,44.118 39.683,46.67 38.024,48.29C35.929,50.333 31.961,51.247 26.332,51.097C26.334,47.693 26.335,42.787 26.335,42.787L26.331,36.19L19.331,36.183L19.335,42.795L19.33,57.62L22.523,57.918C32.181,58.773 38.851,57.262 42.912,53.3C46.076,50.213 47.496,45.753 47.133,40.041C46.271,26.486 33.286,22.333 22.429,22.896C10.05,23.537 2.085,30.616 0,42.828C-1.153,49.587 0.01,59.61 6.745,67.469C10.964,72.394 19.034,78.218 33.516,78C55.793,77.664 72.398,61.059 72.14,39.375C71.879,17.402 55.251,0.833 33.463,0.833Z" style="fill:rgb(35,31,32);fill-rule:nonzero;"/>
                <path d="M137.142,24.242L140.327,24.242C144.142,24.242 146.171,26.307 146.171,30.35C146.171,34.462 143.722,36.457 140.327,36.457L137.142,36.457L137.142,24.242ZM139.382,34.742L140.134,34.742C142.654,34.742 143.792,33.027 143.792,30.35C143.792,27.672 142.654,25.957 140.134,25.957L139.382,25.957L139.382,34.742Z" style="fill:rgb(35,31,32);fill-rule:nonzero;"/>
                <path d="M151.124,34.252L151.159,34.252L152.892,27.444L154.991,27.444L151.702,38.172C151.316,39.415 150.582,40.342 149.129,40.342C148.551,40.342 148.062,40.22 147.747,40.115L147.869,38.452C148.114,38.54 148.359,38.627 148.691,38.627C149.339,38.645 149.619,38.242 149.899,37.314L150.057,36.544L147.064,27.444L149.304,27.444L151.124,34.252Z" style="fill:rgb(35,31,32);fill-rule:nonzero;"/>
                <path d="M156.059,28.932C156.059,28.372 156.041,27.847 155.989,27.444L158.019,27.444C158.036,27.899 158.089,28.372 158.089,28.827L158.142,28.827L158.124,28.827C158.438,28.285 159.052,27.305 160.522,27.305C162.569,27.305 163.182,28.827 163.182,30.647L163.182,36.457L161.012,36.457L161.012,31.049C161.012,29.667 160.661,29.089 159.769,29.089C158.632,29.089 158.229,30.052 158.229,31.207L158.229,36.457L156.059,36.457L156.059,28.932Z" style="fill:rgb(35,31,32);fill-rule:nonzero;"/>
                <path d="M165.579,27.97C166.191,27.689 167.049,27.305 168.432,27.305C171.231,27.305 171.879,28.669 171.879,30.927L171.879,34.865C171.879,35.512 171.949,36.107 172.001,36.457L170.041,36.457C169.937,36.107 169.919,35.669 169.919,35.232L169.884,35.232C169.342,35.967 168.659,36.597 167.364,36.597C165.964,36.597 164.669,35.634 164.669,33.955C164.669,31.504 166.664,30.892 169.411,30.892L169.849,30.892L169.849,30.56C169.849,29.667 169.411,28.845 168.169,28.845C167.084,28.845 166.121,29.37 165.701,29.72L165.579,27.97ZM169.849,32.047L169.656,32.047C167.802,32.047 166.699,32.432 166.699,33.745C166.699,34.567 167.241,35.127 168.081,35.127C169.376,35.127 169.849,34.165 169.849,32.555L169.849,32.047Z" style="fill:rgb(35,31,32);fill-rule:nonzero;"/>
                <path d="M173.839,28.915C173.839,28.267 173.804,27.777 173.769,27.444L175.938,27.444C175.956,27.917 176.009,28.39 176.009,28.862L176.044,28.862C176.376,28.162 177.076,27.305 178.319,27.305C179.842,27.305 180.331,28.25 180.594,28.74C181.031,28.109 181.679,27.305 183.009,27.305C184.969,27.305 185.599,28.705 185.599,30.892L185.599,36.457L183.429,36.457L183.429,30.77C183.429,29.649 183.079,29.089 182.273,29.089C181.312,29.089 180.804,30 180.804,30.997L180.804,36.457L178.634,36.457L178.634,30.77C178.634,29.649 178.284,29.089 177.479,29.089C176.517,29.089 176.009,30 176.009,30.997L176.009,36.457L173.839,36.457L173.839,28.915Z" style="fill:rgb(35,31,32);fill-rule:nonzero;"/>
                <path d="M187.682,23.612L189.921,23.612L189.921,25.747L187.682,25.747L187.682,23.612ZM187.717,27.444L189.887,27.444L189.887,36.457L187.717,36.457L187.717,27.444Z" style="fill:rgb(35,31,32);fill-rule:nonzero;"/>
                <path d="M198.182,36.229C197.674,36.422 196.921,36.597 196.046,36.597C193.071,36.597 191.812,34.515 191.812,31.959C191.812,29.387 193.142,27.305 196.169,27.305C196.852,27.305 197.656,27.515 198.059,27.672L197.937,29.387C197.551,29.194 197.009,28.95 196.414,28.95C194.769,28.95 194.051,30.052 194.051,31.977C194.051,33.657 194.856,34.952 196.519,34.952C197.044,34.952 197.762,34.707 198.059,34.515L198.182,36.229Z" style="fill:rgb(35,31,32);fill-rule:nonzero;"/>
                <path d="M204.499,27.97C205.111,27.689 205.969,27.305 207.351,27.305C210.151,27.305 210.799,28.669 210.799,30.927L210.799,34.865C210.799,35.512 210.868,36.107 210.921,36.457L208.961,36.457C208.856,36.107 208.839,35.669 208.839,35.232L208.804,35.232C208.261,35.967 207.578,36.597 206.283,36.597C204.884,36.597 203.589,35.634 203.589,33.955C203.589,31.504 205.584,30.892 208.331,30.892L208.769,30.892L208.769,30.56C208.769,29.667 208.331,28.845 207.089,28.845C206.004,28.845 205.041,29.37 204.621,29.72L204.499,27.97ZM208.769,32.047L208.576,32.047C206.721,32.047 205.618,32.432 205.618,33.745C205.618,34.567 206.161,35.127 207.001,35.127C208.296,35.127 208.769,34.165 208.769,32.555L208.769,32.047Z" style="fill:rgb(35,31,32);fill-rule:nonzero;"/>
                <path d="M212.812,28.932C212.812,28.372 212.794,27.847 212.741,27.444L214.772,27.444C214.788,27.899 214.841,28.372 214.841,28.827L214.894,28.827L214.876,28.827C215.191,28.285 215.804,27.305 217.273,27.305C219.321,27.305 219.934,28.827 219.934,30.647L219.934,36.457L217.764,36.457L217.764,31.049C217.764,29.667 217.413,29.089 216.522,29.089C215.384,29.089 214.981,30.052 214.981,31.207L214.981,36.457L212.812,36.457L212.812,28.932Z" style="fill:rgb(35,31,32);fill-rule:nonzero;"/>
                <path d="M229.296,23.332L229.296,34.917C229.296,35.564 229.313,36.125 229.366,36.457L227.336,36.457C227.301,36.194 227.266,35.669 227.266,35.057L227.214,35.057C226.863,35.827 226.216,36.597 224.816,36.597C222.576,36.597 221.648,34.462 221.648,31.959C221.648,29.02 222.821,27.305 224.764,27.305C226.059,27.305 226.776,28.04 227.091,28.74L227.126,28.74L227.126,23.332L229.296,23.332ZM225.411,35.004C226.688,35.004 227.126,33.622 227.126,31.924C227.126,30.174 226.636,28.897 225.446,28.897C224.238,28.897 223.818,30.069 223.818,31.872C223.818,33.955 224.151,35.004 225.411,35.004Z" style="fill:rgb(35,31,32);fill-rule:nonzero;"/>
                <path d="M236.051,24.242L239.235,24.242C243.051,24.242 245.081,26.307 245.081,30.35C245.081,34.462 242.631,36.457 239.235,36.457L236.051,36.457L236.051,24.242ZM238.291,34.742L239.043,34.742C241.563,34.742 242.701,33.027 242.701,30.35C242.701,27.672 241.563,25.957 239.043,25.957L238.291,25.957L238.291,34.742Z" style="fill:rgb(35,31,32);fill-rule:nonzero;"/>
                <path d="M247.04,23.612L249.28,23.612L249.28,25.747L247.04,25.747L247.04,23.612ZM247.075,27.444L249.245,27.444L249.245,36.457L247.075,36.457L247.075,27.444Z" style="fill:rgb(35,31,32);fill-rule:nonzero;"/>
                <path d="M251.171,34.357C251.521,34.497 252.413,34.952 253.428,34.952C254.216,34.952 254.828,34.76 254.828,34.06C254.828,33.709 254.653,33.377 253.865,32.922L252.973,32.397C252.063,31.854 251.065,31.277 251.065,29.859C251.065,28.617 252.272,27.305 254.181,27.305C255.335,27.305 256.228,27.602 256.437,27.672L256.315,29.352C255.772,29.142 255.195,28.95 254.408,28.95C253.533,28.95 253.165,29.282 253.165,29.825C253.165,30.314 253.551,30.577 254.181,30.979L255.248,31.662C256.368,32.379 256.928,32.887 256.928,33.937C256.928,35.6 255.528,36.597 253.568,36.597C252.448,36.597 251.521,36.334 251.065,36.16L251.171,34.357Z" style="fill:rgb(35,31,32);fill-rule:nonzero;"/>
                <path d="M259.342,25.589L261.513,24.925L261.513,27.444L263.315,27.444L263.315,29.037L261.513,29.037L261.513,33.709C261.513,34.672 261.863,34.952 262.493,34.952C262.878,34.952 263.158,34.847 263.315,34.76L263.315,36.299C262.982,36.457 262.511,36.597 261.863,36.597C260.252,36.597 259.342,35.862 259.342,33.972L259.342,29.037L257.907,29.037L257.907,27.444L259.342,27.444L259.342,25.589Z" style="fill:rgb(35,31,32);fill-rule:nonzero;"/>
                <path d="M264.768,28.932C264.768,28.372 264.75,27.847 264.697,27.444L266.657,27.444C266.675,27.987 266.728,28.547 266.728,29.089L266.763,29.089C267.025,28.39 267.708,27.305 269.056,27.305C269.195,27.305 269.3,27.339 269.423,27.357L269.423,29.387C269.23,29.334 269.038,29.299 268.811,29.299C267.918,29.299 266.938,29.842 266.938,31.522L266.938,36.457L264.768,36.457L264.768,28.932Z" style="fill:rgb(35,31,32);fill-rule:nonzero;"/>
                <path d="M271.032,23.612L273.272,23.612L273.272,25.747L271.032,25.747L271.032,23.612ZM271.067,27.444L273.237,27.444L273.237,36.457L271.067,36.457L271.067,27.444Z" style="fill:rgb(35,31,32);fill-rule:nonzero;"/>
                <path d="M277.612,23.332L277.612,28.74L277.647,28.74C277.963,28.04 278.68,27.305 279.975,27.305C281.917,27.305 283.09,29.02 283.09,31.959C283.09,34.462 282.162,36.597 279.923,36.597C278.522,36.597 277.875,35.827 277.525,35.057L277.473,35.057C277.473,35.669 277.438,36.194 277.402,36.457L275.372,36.457C275.425,36.125 275.442,35.564 275.442,34.917L275.442,23.332L277.612,23.332ZM279.327,35.004C280.588,35.004 280.92,33.955 280.92,31.872C280.92,30.069 280.5,28.897 279.292,28.897C278.103,28.897 277.612,30.174 277.612,31.924C277.612,33.622 278.05,35.004 279.327,35.004Z" style="fill:rgb(35,31,32);fill-rule:nonzero;"/>
                <path d="M291.927,34.97C291.927,35.529 291.944,36.055 291.997,36.457L289.967,36.457C289.95,36.002 289.897,35.529 289.897,35.075L289.845,35.057L289.862,35.075C289.442,35.74 288.882,36.597 287.465,36.597C285.417,36.597 284.805,35.075 284.805,33.254L284.805,27.444L286.975,27.444L286.975,32.852C286.975,34.234 287.359,34.812 288.27,34.812C289.425,34.812 289.757,33.762 289.757,32.607L289.757,27.444L291.927,27.444L291.927,34.97Z" style="fill:rgb(35,31,32);fill-rule:nonzero;"/>
                <path d="M294.692,25.589L296.862,24.925L296.862,27.444L298.665,27.444L298.665,29.037L296.862,29.037L296.862,33.709C296.862,34.672 297.212,34.952 297.842,34.952C298.228,34.952 298.507,34.847 298.665,34.76L298.665,36.299C298.332,36.457 297.859,36.597 297.212,36.597C295.603,36.597 294.692,35.862 294.692,33.972L294.692,29.037L293.257,29.037L293.257,27.444L294.692,27.444L294.692,25.589Z" style="fill:rgb(35,31,32);fill-rule:nonzero;"/>
                <path d="M306.662,36.02C306.207,36.212 305.262,36.597 303.967,36.597C301.062,36.597 299.802,34.515 299.802,32.082C299.802,29.387 301.22,27.305 303.512,27.305C305.454,27.305 307.117,28.442 307.117,32.117L307.117,32.537L301.902,32.537C301.902,34.077 302.515,35.004 304.194,35.004C305.524,35.004 306.154,34.602 306.557,34.305L306.662,36.02ZM305.017,31.172C305.017,29.58 304.492,28.774 303.512,28.774C302.374,28.774 301.902,29.982 301.902,31.172L305.017,31.172Z" style="fill:rgb(35,31,32);fill-rule:nonzero;"/>
                <path d="M316.199,23.332L316.199,34.917C316.199,35.564 316.217,36.125 316.27,36.457L314.239,36.457C314.204,36.194 314.17,35.669 314.17,35.057L314.117,35.057C313.767,35.827 313.119,36.597 311.72,36.597C309.48,36.597 308.552,34.462 308.552,31.959C308.552,29.02 309.725,27.305 311.667,27.305C312.962,27.305 313.68,28.04 313.994,28.74L314.029,28.74L314.029,23.332L316.199,23.332ZM312.314,35.004C313.592,35.004 314.029,33.622 314.029,31.924C314.029,30.174 313.539,28.897 312.35,28.897C311.142,28.897 310.722,30.069 310.722,31.872C310.722,33.955 311.055,35.004 312.314,35.004Z" style="fill:rgb(35,31,32);fill-rule:nonzero;"/>
                <rect x="137.264" y="45.242" width="2.24" height="12.215" style="fill:rgb(35,31,32);fill-rule:nonzero;"/>
                <path d="M141.797,49.932C141.797,49.372 141.779,48.847 141.727,48.444L143.757,48.444C143.774,48.899 143.827,49.372 143.827,49.827L143.879,49.827L143.862,49.827C144.177,49.285 144.789,48.305 146.259,48.305C148.307,48.305 148.919,49.827 148.919,51.647L148.919,57.457L146.749,57.457L146.749,52.049C146.749,50.667 146.399,50.089 145.507,50.089C144.369,50.089 143.967,51.052 143.967,52.207L143.967,57.457L141.797,57.457L141.797,49.932Z" style="fill:rgb(35,31,32);fill-rule:nonzero;"/>
                <path d="M151.579,50.037L150.074,50.037L150.074,48.444L151.579,48.444L151.579,46.607C151.579,45.312 152.191,44.122 154.169,44.122C154.747,44.122 155.307,44.245 155.727,44.332L155.639,45.907C155.377,45.837 155.097,45.767 154.781,45.767C154.151,45.767 153.749,46.205 153.749,46.887L153.749,48.444L155.395,48.444L155.395,50.037L153.749,50.037L153.749,57.457L151.579,57.457L151.579,50.037Z" style="fill:rgb(35,31,32);fill-rule:nonzero;"/>
                <path d="M160.434,48.305C162.272,48.305 164.389,49.267 164.389,52.942C164.389,56.722 162.272,57.597 160.434,57.597C158.597,57.597 156.462,56.722 156.462,52.942C156.462,49.267 158.597,48.305 160.434,48.305ZM160.434,56.057C161.834,56.057 162.149,54.447 162.149,52.942C162.149,51.437 161.834,49.845 160.434,49.845C159.034,49.845 158.701,51.437 158.701,52.942C158.701,54.447 159.034,56.057 160.434,56.057Z" style="fill:rgb(35,31,32);fill-rule:nonzero;"/>
                <path d="M166.174,49.932C166.174,49.372 166.156,48.847 166.104,48.444L168.063,48.444C168.081,48.987 168.134,49.547 168.134,50.089L168.169,50.089C168.432,49.39 169.113,48.305 170.461,48.305C170.602,48.305 170.706,48.339 170.829,48.357L170.829,50.387C170.636,50.334 170.443,50.299 170.216,50.299C169.323,50.299 168.344,50.842 168.344,52.522L168.344,57.457L166.174,57.457L166.174,49.932Z" style="fill:rgb(35,31,32);fill-rule:nonzero;"/>
                <path d="M172.211,49.915C172.211,49.267 172.176,48.777 172.141,48.444L174.312,48.444C174.328,48.917 174.381,49.39 174.381,49.862L174.416,49.862C174.749,49.162 175.448,48.305 176.691,48.305C178.214,48.305 178.703,49.25 178.966,49.74C179.403,49.109 180.051,48.305 181.381,48.305C183.341,48.305 183.971,49.705 183.971,51.892L183.971,57.457L181.801,57.457L181.801,51.77C181.801,50.649 181.451,50.089 180.646,50.089C179.684,50.089 179.176,51 179.176,51.997L179.176,57.457L177.006,57.457L177.006,51.77C177.006,50.649 176.656,50.089 175.851,50.089C174.889,50.089 174.381,51 174.381,51.997L174.381,57.457L172.211,57.457L172.211,49.915Z" style="fill:rgb(35,31,32);fill-rule:nonzero;"/>
                <path d="M186.316,48.97C186.929,48.689 187.786,48.305 189.169,48.305C191.969,48.305 192.616,49.669 192.616,51.927L192.616,55.865C192.616,56.512 192.687,57.107 192.738,57.457L190.778,57.457C190.674,57.107 190.656,56.669 190.656,56.232L190.621,56.232C190.078,56.967 189.396,57.597 188.101,57.597C186.701,57.597 185.406,56.634 185.406,54.955C185.406,52.504 187.401,51.892 190.148,51.892L190.586,51.892L190.586,51.56C190.586,50.667 190.148,49.845 188.906,49.845C187.821,49.845 186.858,50.37 186.438,50.72L186.316,48.97ZM190.586,53.047L190.394,53.047C188.538,53.047 187.437,53.432 187.437,54.745C187.437,55.567 187.979,56.127 188.818,56.127C190.113,56.127 190.586,55.165 190.586,53.555L190.586,53.047Z" style="fill:rgb(35,31,32);fill-rule:nonzero;"/>
                <path d="M195.434,46.589L197.604,45.925L197.604,48.444L199.406,48.444L199.406,50.037L197.604,50.037L197.604,54.709C197.604,55.672 197.953,55.952 198.584,55.952C198.969,55.952 199.249,55.847 199.406,55.76L199.406,57.299C199.073,57.457 198.601,57.597 197.953,57.597C196.344,57.597 195.434,56.862 195.434,54.972L195.434,50.037L193.999,50.037L193.999,48.444L195.434,48.444L195.434,46.589Z" style="fill:rgb(35,31,32);fill-rule:nonzero;"/>
                <path d="M200.964,44.612L203.203,44.612L203.203,46.747L200.964,46.747L200.964,44.612ZM200.998,48.444L203.168,48.444L203.168,57.457L200.998,57.457L200.998,48.444Z" style="fill:rgb(35,31,32);fill-rule:nonzero;"/>
                <path d="M209.065,48.305C210.903,48.305 213.021,49.267 213.021,52.942C213.021,56.722 210.903,57.597 209.065,57.597C207.229,57.597 205.094,56.722 205.094,52.942C205.094,49.267 207.229,48.305 209.065,48.305ZM209.065,56.057C210.466,56.057 210.78,54.447 210.78,52.942C210.78,51.437 210.466,49.845 209.065,49.845C207.666,49.845 207.333,51.437 207.333,52.942C207.333,54.447 207.666,56.057 209.065,56.057Z" style="fill:rgb(35,31,32);fill-rule:nonzero;"/>
                <path d="M214.735,49.932C214.735,49.372 214.718,48.847 214.666,48.444L216.695,48.444C216.713,48.899 216.766,49.372 216.766,49.827L216.818,49.827L216.801,49.827C217.115,49.285 217.729,48.305 219.198,48.305C221.245,48.305 221.858,49.827 221.858,51.647L221.858,57.457L219.688,57.457L219.688,52.049C219.688,50.667 219.338,50.089 218.445,50.089C217.308,50.089 216.905,51.052 216.905,52.207L216.905,57.457L214.735,57.457L214.735,49.932Z" style="fill:rgb(35,31,32);fill-rule:nonzero;"/>
                <path d="M228.525,55.095C228.963,55.375 229.926,55.847 231.115,55.847C232.096,55.847 232.971,55.305 232.971,54.08C232.971,53.205 232.463,52.819 231.378,52.225L230.24,51.595C229.033,50.93 228.245,49.967 228.245,48.392C228.245,46.205 230.048,45.067 232.096,45.067C233.391,45.067 234.301,45.399 234.65,45.504L234.545,47.377C234.003,47.167 233.285,46.852 232.253,46.852C231.133,46.852 230.556,47.447 230.556,48.287C230.556,49.197 231.168,49.547 231.851,49.932L233.163,50.667C234.598,51.472 235.28,52.242 235.28,53.957C235.28,56.442 233.513,57.632 231.186,57.632C229.96,57.632 229.016,57.457 228.403,57.089L228.525,55.095Z" style="fill:rgb(35,31,32);fill-rule:nonzero;"/>
                <path d="M240.285,55.252L240.32,55.252L242.053,48.444L244.153,48.444L240.863,59.172C240.478,60.415 239.743,61.342 238.29,61.342C237.713,61.342 237.223,61.22 236.908,61.115L237.03,59.452C237.275,59.54 237.521,59.627 237.853,59.627C238.5,59.645 238.78,59.242 239.061,58.314L239.218,57.544L236.226,48.444L238.466,48.444L240.285,55.252Z" style="fill:rgb(35,31,32);fill-rule:nonzero;"/>
                <path d="M244.976,55.357C245.325,55.497 246.218,55.952 247.232,55.952C248.021,55.952 248.633,55.76 248.633,55.06C248.633,54.709 248.458,54.377 247.67,53.922L246.778,53.397C245.868,52.854 244.87,52.277 244.87,50.859C244.87,49.617 246.078,48.305 247.985,48.305C249.141,48.305 250.033,48.602 250.243,48.672L250.12,50.352C249.578,50.142 249,49.95 248.213,49.95C247.338,49.95 246.971,50.282 246.971,50.825C246.971,51.314 247.355,51.577 247.985,51.979L249.053,52.662C250.173,53.379 250.732,53.887 250.732,54.937C250.732,56.6 249.333,57.597 247.373,57.597C246.253,57.597 245.325,57.334 244.87,57.16L244.976,55.357Z" style="fill:rgb(35,31,32);fill-rule:nonzero;"/>
                <path d="M253.147,46.589L255.317,45.925L255.317,48.444L257.12,48.444L257.12,50.037L255.317,50.037L255.317,54.709C255.317,55.672 255.668,55.952 256.298,55.952C256.683,55.952 256.963,55.847 257.12,55.76L257.12,57.299C256.788,57.457 256.315,57.597 255.668,57.597C254.058,57.597 253.147,56.862 253.147,54.972L253.147,50.037L251.713,50.037L251.713,48.444L253.147,48.444L253.147,46.589Z" style="fill:rgb(35,31,32);fill-rule:nonzero;"/>
                <path d="M265.117,57.02C264.663,57.212 263.718,57.597 262.423,57.597C259.518,57.597 258.258,55.515 258.258,53.082C258.258,50.387 259.674,48.305 261.967,48.305C263.91,48.305 265.572,49.442 265.572,53.117L265.572,53.537L260.357,53.537C260.357,55.077 260.97,56.004 262.65,56.004C263.98,56.004 264.61,55.602 265.013,55.305L265.117,57.02ZM263.473,52.172C263.473,50.58 262.947,49.774 261.967,49.774C260.829,49.774 260.357,50.982 260.357,52.172L263.473,52.172Z" style="fill:rgb(35,31,32);fill-rule:nonzero;"/>
                <path d="M267.2,49.915C267.2,49.267 267.165,48.777 267.13,48.444L269.3,48.444C269.317,48.917 269.37,49.39 269.37,49.862L269.405,49.862C269.737,49.162 270.438,48.305 271.68,48.305C273.202,48.305 273.692,49.25 273.955,49.74C274.393,49.109 275.04,48.305 276.37,48.305C278.33,48.305 278.96,49.705 278.96,51.892L278.96,57.457L276.79,57.457L276.79,51.77C276.79,50.649 276.44,50.089 275.635,50.089C274.673,50.089 274.165,51 274.165,51.997L274.165,57.457L271.995,57.457L271.995,51.77C271.995,50.649 271.646,50.089 270.84,50.089C269.878,50.089 269.37,51 269.37,51.997L269.37,57.457L267.2,57.457L267.2,49.915Z" style="fill:rgb(35,31,32);fill-rule:nonzero;"/>
                <path d="M280.623,55.357C280.973,55.497 281.865,55.952 282.88,55.952C283.668,55.952 284.28,55.76 284.28,55.06C284.28,54.709 284.105,54.377 283.317,53.922L282.425,53.397C281.516,52.854 280.518,52.277 280.518,50.859C280.518,49.617 281.726,48.305 283.633,48.305C284.788,48.305 285.68,48.602 285.89,48.672L285.768,50.352C285.226,50.142 284.647,49.95 283.86,49.95C282.985,49.95 282.617,50.282 282.617,50.825C282.617,51.314 283.003,51.577 283.633,51.979L284.7,52.662C285.82,53.379 286.38,53.887 286.38,54.937C286.38,56.6 284.98,57.597 283.021,57.597C281.9,57.597 280.973,57.334 280.518,57.16L280.623,55.357Z" style="fill:rgb(35,31,32);fill-rule:nonzero;"/>
            </g>
        </g>
    </g>
</svg>
