<svg clip-rule="evenodd" fill-rule="evenodd" stroke-linejoin="round" stroke-miterlimit="2" viewBox="0 0 475 325" xmlns="http://www.w3.org/2000/svg" xmlns:xlink="http://www.w3.org/1999/xlink"><clipPath id="a"><path clip-rule="evenodd" d="m0 .833h113v77h-113z"/></clipPath><g clip-path="url(#a)" transform="scale(4.16667)"><path d="m98.677 33.686c0-3.597 2.935-4.59 5.206-4.59 2.317 0 4.636.523 6.716 1.425l.616-5.444c-2.414-.806-5.062-1.183-7.901-1.183-5.818 0-11.545 2.701-11.545 10.076 0 10.929 14.478 8.328 14.478 14.623 0 2.978-3.36 4.258-5.867 4.258-2.602 0-5.206-.809-7.474-2.036l-.615 5.959c3.263.805 4.873 1.28 8.467 1.28 6.673 0 12.396-2.748 12.396-9.985 0-11.068-14.477-8.655-14.477-14.383zm-19.898 23.799h6.625v-33.024h-6.625zm-45.316-56.652h-14.132v16.477h7v-9.477h7.132c17.845 0 31.463 13.596 31.678 31.625.213 17.997-13.131 31.263-31.73 31.543-9.448.143-16.631-2.578-21.35-8.086-5.164-6.027-6.007-13.953-5.161-18.909 1.52-8.902 6.866-13.652 15.891-14.119 2.776-.144 16.662-.309 17.356 10.599.231 3.632-.464 6.184-2.123 7.804-2.095 2.043-6.063 2.957-11.692 2.807.002-3.404.003-8.31.003-8.31l-.004-6.597-7-.007.004 6.612-.005 14.825 3.193.298c9.658.855 16.328-.656 20.389-4.618 3.164-3.087 4.584-7.547 4.221-13.259-.862-13.555-13.847-17.708-24.704-17.145-12.379.641-20.344 7.72-22.429 19.932-1.153 6.759.01 16.782 6.745 24.641 4.219 4.925 12.289 10.749 26.771 10.531 22.277-.336 38.882-16.941 38.623-38.625-.26-21.973-16.888-38.542-38.676-38.542z" fill="#231f20" fill-rule="nonzero"/></g></svg>