<?xml version="1.0" encoding="UTF-8" standalone="no"?>
<!DOCTYPE svg PUBLIC "-//W3C//DTD SVG 1.1//EN" "http://www.w3.org/Graphics/SVG/1.1/DTD/svg11.dtd">
<svg width="100%" height="100%" viewBox="0 0 475 325" version="1.1" xmlns="http://www.w3.org/2000/svg" xmlns:xlink="http://www.w3.org/1999/xlink" xml:space="preserve" xmlns:serif="http://www.serif.com/" style="fill-rule:evenodd;clip-rule:evenodd;stroke-linejoin:round;stroke-miterlimit:2;">
    <g transform="matrix(4.16667,0,0,4.16667,0,0)">
        <clipPath id="_clip1">
            <rect x="0" y="0.833" width="113" height="77"/>
        </clipPath>
        <g clip-path="url(#_clip1)">
            <path d="M98.677,33.686C98.677,30.089 101.612,29.096 103.883,29.096C106.2,29.096 108.519,29.619 110.599,30.521L111.215,25.077C108.801,24.271 106.153,23.894 103.314,23.894C97.496,23.894 91.769,26.595 91.769,33.97C91.769,44.899 106.247,42.298 106.247,48.593C106.247,51.571 102.887,52.851 100.38,52.851C97.778,52.851 95.174,52.042 92.906,50.815L92.291,56.774C95.554,57.579 97.164,58.054 100.758,58.054C107.431,58.054 113.154,55.306 113.154,48.069C113.154,37.001 98.677,39.414 98.677,33.686ZM78.779,57.485L85.404,57.485L85.404,24.461L78.779,24.461L78.779,57.485ZM33.463,0.833L19.331,0.833L19.331,17.31L26.331,17.31L26.331,7.833L33.463,7.833C51.308,7.833 64.926,21.429 65.141,39.458C65.354,57.455 52.01,70.721 33.411,71.001C23.963,71.144 16.78,68.423 12.061,62.915C6.897,56.888 6.054,48.962 6.9,44.006C8.42,35.104 13.766,30.354 22.791,29.887C25.567,29.743 39.453,29.578 40.147,40.486C40.378,44.118 39.683,46.67 38.024,48.29C35.929,50.333 31.961,51.247 26.332,51.097C26.334,47.693 26.335,42.787 26.335,42.787L26.331,36.19L19.331,36.183L19.335,42.795L19.33,57.62L22.523,57.918C32.181,58.773 38.851,57.262 42.912,53.3C46.076,50.213 47.496,45.753 47.133,40.041C46.271,26.486 33.286,22.333 22.429,22.896C10.05,23.537 2.085,30.616 0,42.828C-1.153,49.587 0.01,59.61 6.745,67.469C10.964,72.394 19.034,78.218 33.516,78C55.793,77.664 72.398,61.059 72.139,39.375C71.879,17.402 55.251,0.833 33.463,0.833Z" style="fill:white;fill-rule:nonzero;"/>
        </g>
    </g>
</svg>
