<?xml version="1.0" encoding="UTF-8" standalone="no"?>
<!DOCTYPE svg PUBLIC "-//W3C//DTD SVG 1.1//EN" "http://www.w3.org/Graphics/SVG/1.1/DTD/svg11.dtd">
<svg width="100%" height="100%" viewBox="0 0 592 205" version="1.1" xmlns="http://www.w3.org/2000/svg" xmlns:xlink="http://www.w3.org/1999/xlink" xml:space="preserve" xmlns:serif="http://www.serif.com/" style="fill-rule:evenodd;clip-rule:evenodd;stroke-linejoin:round;stroke-miterlimit:2;">
    <g transform="matrix(4.16667,0,0,4.16667,0,0)">
        <path d="M31.561,35.441L31.561,12.289L31.064,12.289L31.064,9.736C31.059,9.418 31.013,9.217 30.873,8.892C30.837,8.81 30.786,8.719 30.728,8.629L30.728,7.708C30.728,7.708 30.727,6.984 30.428,6.439C30.103,5.844 29.472,5.519 29.165,5.39C29.094,5.357 29.048,5.341 29.039,5.339L28.988,5.322L28.924,5.339C28.894,5.348 28.395,5.506 27.92,6.152C27.49,6.746 27.475,7.505 27.471,7.715C27.471,7.75 27.472,7.77 27.472,7.772L27.472,8.622C27.415,8.706 27.335,8.833 27.248,9.021C27.116,9.344 27.106,9.644 27.102,9.825L27.102,12.289L26.603,12.289L26.603,20.741L25.234,19.373L25.234,16.961L24.77,15.404L24.091,10.063L23.59,15.18L23.125,16.962L23.125,19.197L21.769,20.552L21.769,12.289L21.272,12.289L21.272,9.736C21.267,9.418 21.222,9.217 21.081,8.892C21.045,8.81 20.994,8.719 20.937,8.629L20.937,7.708C20.937,7.708 20.935,6.984 20.637,6.439C20.311,5.844 19.68,5.519 19.374,5.39C19.302,5.357 19.256,5.341 19.248,5.339L19.196,5.322L19.133,5.339C19.102,5.348 18.603,5.506 18.128,6.152C17.698,6.746 17.683,7.505 17.68,7.715L17.68,8.622C17.624,8.706 17.543,8.833 17.456,9.021C17.324,9.344 17.315,9.644 17.311,9.825L17.311,12.289L16.811,12.289L16.811,35.441L4.646,35.441C2.944,32.308 1.974,28.72 1.974,24.903C1.974,18.796 4.449,13.268 8.451,9.264C12.455,5.262 17.982,2.787 24.09,2.787C30.198,2.787 35.726,5.262 39.729,9.264C43.731,13.268 46.207,18.796 46.207,24.903C46.207,28.72 45.237,32.308 43.535,35.441L31.561,35.441ZM30.955,30.194L30.955,35.441L27.013,35.441L27.013,30.194L30.955,30.194ZM30.955,26.752L30.955,29.854L27.013,29.854L27.013,26.752L30.955,26.752ZM30.955,21.657L30.955,26.412L27.013,26.412L27.013,21.657L30.955,21.657ZM29.739,19.322L29.739,21.317L28.233,21.317L28.233,19.322C28.233,18.939 28.374,18.627 28.597,18.413C28.708,18.307 28.839,18.229 28.985,18.171L28.987,18.171C29.135,18.229 29.264,18.307 29.375,18.413C29.599,18.627 29.739,18.938 29.739,19.322ZM30.955,17.322L30.955,21.317L30.079,21.317L30.079,19.322C30.08,18.854 29.903,18.447 29.609,18.167C29.452,18.016 29.265,17.905 29.059,17.833C29.05,17.829 28.985,17.809 28.985,17.809C28.985,17.809 28.924,17.829 28.918,17.832C28.711,17.903 28.521,18.016 28.362,18.167C28.068,18.447 27.892,18.855 27.893,19.322L27.893,21.317L27.013,21.317L27.013,17.322L30.955,17.322ZM29.662,15.569L29.662,16.983L28.311,16.983L28.311,15.569C28.315,15.022 28.584,14.644 28.985,14.466C29.387,14.643 29.657,15.022 29.662,15.569ZM30.955,13.841L30.955,16.983L30.002,16.983L30.002,15.569C30.002,15.1 29.828,14.703 29.543,14.431C29.388,14.284 29.204,14.173 29,14.103C28.987,14.099 28.988,14.098 28.988,14.098C28.988,14.098 28.985,14.099 28.973,14.103C28.769,14.173 28.584,14.284 28.43,14.431C28.144,14.703 27.97,15.1 27.971,15.569L27.971,16.983L27.013,16.983L27.013,13.841L30.955,13.841ZM30.955,12.696L30.955,13.501L27.013,13.501L27.013,12.696L30.955,12.696ZM28.036,9.162C28.127,9.384 28.142,9.626 28.145,9.796L28.148,12.289L27.513,12.289L27.513,9.794C27.517,9.626 27.535,9.397 27.63,9.164C27.7,9.014 27.767,8.889 27.825,8.804C27.897,8.91 27.966,9.012 28.036,9.162ZM29.473,9.813L29.472,12.289L28.499,12.289C28.499,11.598 28.498,9.812 28.498,9.811C28.506,9.648 28.518,9.424 28.635,9.194C28.758,8.952 28.989,8.808 28.989,8.808L28.99,8.808C28.99,8.808 29.209,8.952 29.332,9.194C29.455,9.437 29.466,9.647 29.473,9.813ZM30.146,8.807C30.207,8.892 30.271,9.016 30.34,9.166C30.436,9.4 30.461,9.628 30.464,9.796L30.464,12.289L29.823,12.289L29.823,9.796C29.826,9.626 29.856,9.387 29.947,9.164C30.025,8.989 30.087,8.889 30.146,8.807ZM27.9,7.568C27.918,7.29 27.993,6.763 28.262,6.404C28.467,6.125 28.67,5.96 28.819,5.864C28.887,5.819 28.942,5.792 28.982,5.773C29.022,5.792 29.077,5.819 29.145,5.864C29.293,5.96 29.497,6.125 29.702,6.404C29.971,6.763 30.046,7.29 30.064,7.568L27.9,7.568ZM30.067,7.908L30.067,8.094C30.062,8.131 30.051,8.187 30.032,8.239C30.001,8.324 29.921,8.459 29.815,8.624C29.775,8.689 29.705,8.798 29.627,8.955C29.527,8.8 29.442,8.699 29.381,8.635C29.315,8.565 29.226,8.475 29.154,8.39C28.996,8.204 28.988,8.092 28.988,8.092C28.988,8.092 28.983,8.204 28.825,8.39C28.752,8.475 28.664,8.565 28.597,8.635C28.536,8.7 28.45,8.803 28.348,8.96C28.268,8.799 28.196,8.688 28.155,8.621C28.05,8.456 27.971,8.321 27.939,8.236C27.908,8.154 27.898,8.059 27.897,8.051L27.897,7.908L30.067,7.908ZM26.603,30.194L26.603,35.441L21.566,35.441L21.566,30.194L26.603,30.194ZM23.155,26.752L23.155,28.75L25.028,28.75L25.028,26.752L26.603,26.752L26.603,29.854L21.566,29.854L21.566,26.752L23.155,26.752ZM26.603,24.172L26.603,26.412L25.028,26.412L25.028,25.851C25.028,25.335 24.609,24.915 24.091,24.915C23.574,24.915 23.155,25.335 23.155,25.851L23.155,26.412L21.566,26.412L21.566,24.172L26.603,24.172ZM26.603,21.657L26.603,23.578L21.566,23.578L21.566,21.657L26.603,21.657ZM24.091,18.807L26.601,21.317L21.582,21.317L24.091,18.807ZM23.566,16.949L23.962,15.253L24.126,12.418L24.222,15.252L24.618,16.949L23.566,16.949ZM24.633,17.357L24.633,18.772L24.091,18.23L23.55,18.771L23.55,17.357L24.633,17.357ZM21.164,30.194L21.164,35.441L17.221,35.441L17.221,30.194L21.164,30.194ZM21.164,26.752L21.164,29.854L17.221,29.854L17.221,26.752L21.164,26.752ZM21.164,21.657L21.164,26.412L17.221,26.412L17.221,21.657L21.164,21.657ZM19.948,19.325L19.948,21.317L18.441,21.317L18.441,19.322C18.441,18.939 18.582,18.627 18.805,18.413C18.917,18.307 19.047,18.229 19.194,18.171L19.195,18.171C19.343,18.229 19.472,18.307 19.583,18.413C19.807,18.627 19.947,18.938 19.947,19.322L19.948,19.325ZM21.164,17.322L21.164,21.317L20.288,21.317L20.288,19.322C20.288,18.854 20.112,18.447 19.817,18.167C19.66,18.016 19.473,17.905 19.268,17.833C19.258,17.829 19.193,17.809 19.193,17.809C19.193,17.809 19.132,17.829 19.126,17.832C18.919,17.903 18.73,18.016 18.571,18.167C18.276,18.447 18.1,18.855 18.101,19.322L18.101,21.317L17.221,21.317L17.221,17.322L21.164,17.322ZM19.87,15.569L19.87,16.983L18.52,16.983L18.519,15.569C18.524,15.022 18.793,14.644 19.194,14.466C19.596,14.643 19.865,15.022 19.87,15.569ZM21.164,13.841L21.164,16.983L20.21,16.983L20.21,15.569C20.21,15.1 20.037,14.703 19.751,14.431C19.597,14.284 19.412,14.173 19.208,14.103C19.195,14.099 19.196,14.098 19.196,14.098C19.196,14.098 19.194,14.099 19.181,14.103C18.977,14.173 18.792,14.284 18.638,14.431C18.352,14.703 18.178,15.1 18.179,15.569L18.179,16.983L17.221,16.983L17.221,13.841L21.164,13.841ZM21.164,12.696L21.164,13.501L17.221,13.501L17.221,12.696L21.164,12.696ZM18.244,9.162C18.335,9.384 18.351,9.626 18.353,9.796L18.356,12.289L17.722,12.289L17.722,9.794C17.725,9.626 17.744,9.397 17.838,9.164C17.909,9.014 17.976,8.889 18.033,8.804C18.106,8.91 18.174,9.012 18.244,9.162ZM19.681,9.813L19.68,12.289L18.708,12.289C18.707,11.598 18.706,9.812 18.706,9.811C18.714,9.648 18.727,9.424 18.843,9.194C18.966,8.952 19.197,8.808 19.197,8.808L19.198,8.808C19.198,8.808 19.418,8.952 19.54,9.194C19.663,9.437 19.674,9.647 19.681,9.813ZM20.354,8.807C20.416,8.892 20.479,9.016 20.549,9.166C20.644,9.4 20.669,9.628 20.673,9.796L20.673,12.289L20.031,12.289L20.031,9.796C20.034,9.626 20.064,9.387 20.155,9.164C20.233,8.989 20.296,8.889 20.354,8.807ZM18.109,7.568C18.126,7.29 18.201,6.763 18.471,6.404C18.676,6.125 18.879,5.96 19.027,5.864C19.096,5.819 19.15,5.792 19.19,5.773C19.23,5.792 19.285,5.819 19.353,5.864C19.502,5.96 19.705,6.125 19.91,6.404C20.179,6.763 20.255,7.29 20.272,7.568L18.109,7.568ZM20.275,7.908L20.275,8.094C20.27,8.131 20.26,8.187 20.241,8.239C20.209,8.324 20.129,8.459 20.024,8.624C19.984,8.689 19.914,8.798 19.836,8.955C19.735,8.8 19.65,8.699 19.59,8.635C19.523,8.565 19.435,8.475 19.362,8.39C19.205,8.204 19.196,8.092 19.196,8.092C19.196,8.092 19.191,8.204 19.034,8.39C18.961,8.475 18.873,8.565 18.806,8.635C18.745,8.7 18.659,8.803 18.556,8.96C18.476,8.799 18.404,8.688 18.364,8.621C18.258,8.456 18.179,8.321 18.147,8.236C18.117,8.155 18.106,8.062 18.106,8.052L18.106,7.908L20.275,7.908ZM43.026,36.333L5.155,36.333C5.044,36.152 4.938,35.967 4.833,35.782L43.348,35.782C43.243,35.967 43.136,36.152 43.026,36.333ZM41.541,38.492C41.284,37.951 40.733,37.576 40.094,37.576C39.21,37.576 38.494,38.292 38.494,39.177L38.494,39.694L37.915,39.694L37.915,39.177C37.915,38.292 37.198,37.576 36.314,37.576C35.43,37.576 34.713,38.292 34.713,39.177L34.713,39.694L34.133,39.694L34.133,39.177C34.133,38.292 33.417,37.576 32.533,37.576C31.648,37.576 30.932,38.292 30.932,39.177L30.932,39.694L30.353,39.694L30.353,39.177C30.353,38.292 29.636,37.576 28.752,37.576C27.868,37.576 27.151,38.292 27.151,39.177L27.151,39.694L26.554,39.694C26.372,38.496 25.34,37.576 24.091,37.576C22.842,37.576 21.811,38.496 21.629,39.694L21.014,39.694L21.014,39.177C21.014,38.292 20.297,37.576 19.414,37.576C18.529,37.576 17.813,38.292 17.813,39.177L17.813,39.694L17.233,39.694L17.233,39.177C17.233,38.292 16.517,37.576 15.632,37.576C14.749,37.576 14.032,38.292 14.032,39.177L14.032,39.694L13.452,39.694L13.452,39.177C13.452,38.292 12.735,37.576 11.852,37.576C10.967,37.576 10.251,38.292 10.251,39.177L10.251,39.694L9.671,39.694L9.671,39.177C9.671,38.292 8.955,37.576 8.071,37.576C7.437,37.576 6.89,37.945 6.63,38.479C6.24,37.978 5.873,37.459 5.526,36.925L42.655,36.925C42.305,37.463 41.934,37.987 41.541,38.492ZM39.729,40.542C36.279,43.992 31.696,46.305 26.585,46.879L26.585,44.349L27.519,44.349C29.251,44.349 30.503,44.205 30.503,44.205C30.503,44.205 29.214,44.009 27.519,44.009L26.585,44.009L26.585,40.289L27.702,40.289L27.702,39.177C27.702,38.539 28.22,38.021 28.858,38.021C29.497,38.021 30.015,38.539 30.015,39.177L30.015,40.289L31.482,40.289L31.482,40.282L31.483,40.282L31.483,39.177C31.483,38.539 32.001,38.021 32.639,38.021C33.278,38.021 33.795,38.539 33.795,39.177L33.795,40.289L35.264,40.289L35.264,39.177C35.264,38.539 35.781,38.021 36.42,38.021C37.059,38.021 37.577,38.539 37.577,39.177L37.577,40.289L39.044,40.289L39.044,39.177C39.044,38.539 39.562,38.021 40.201,38.021C40.708,38.021 41.137,38.347 41.293,38.801C40.802,39.408 40.281,39.99 39.729,40.542ZM25.414,42.351C25.258,42.937 24.726,43.37 24.091,43.37C23.457,43.37 22.925,42.937 22.77,42.351L25.414,42.351ZM23.715,41.195C23.82,41.488 24.099,41.699 24.429,41.699C24.786,41.699 25.084,41.452 25.166,41.119C25.386,41.129 25.607,41.194 25.827,41.379C26.038,41.555 26.12,41.86 26.149,42.01L22.033,42.01C22.063,41.86 22.145,41.555 22.356,41.379C22.807,41 23.267,41.124 23.715,41.195ZM23.179,38.049L23.627,38.69L24.085,37.821L24.543,38.69L24.991,38.049L24.813,39.162L23.357,39.162L23.179,38.049ZM23.391,39.503L24.792,39.503C24.846,39.631 24.98,39.957 25.062,40.145C25.119,40.276 25.192,40.417 25.103,40.561C24.997,40.732 24.858,40.708 24.761,40.7C24.756,40.699 24.75,40.7 24.744,40.699C24.647,40.966 24.392,41.158 24.091,41.158C23.791,41.158 23.537,40.966 23.439,40.699C23.433,40.7 23.427,40.699 23.422,40.7C23.324,40.708 23.186,40.732 23.08,40.561C22.991,40.417 23.064,40.276 23.121,40.145C23.203,39.957 23.337,39.631 23.391,39.503ZM25.793,46.955C25.231,46.998 24.664,47.02 24.09,47.02C23.518,47.02 22.951,46.998 22.389,46.956L21.971,44.349L22.454,44.349C22.334,44.063 22.125,43.563 22.044,43.36C21.915,43.034 22.011,42.818 22.228,42.734C22.439,42.652 22.677,42.768 22.752,43.046L22.963,43.838L23.271,43.838L23.271,44.451L22.543,44.451L22.543,44.791L23.609,44.791L23.611,44.349L24.904,44.349L24.903,43.838L25.212,43.838L25.425,43.046C25.501,42.768 25.741,42.652 25.953,42.734C26.171,42.818 26.268,43.034 26.138,43.36C26.103,43.449 26.046,43.595 25.984,43.754L25.696,44.451L24.918,44.451L24.918,44.791L25.923,44.791L26.106,44.349L26.211,44.349L25.793,46.955ZM21.598,44.009L20.578,44.009L20.578,44.349L21.598,44.349L21.598,46.879C16.486,46.306 11.902,43.992 8.451,40.542C7.956,40.046 7.484,39.528 7.038,38.988C7.128,38.439 7.603,38.021 8.177,38.021C8.816,38.021 9.333,38.539 9.333,39.177L9.333,40.289L10.801,40.289L10.801,40.282L10.802,40.282L10.802,39.177C10.802,38.539 11.319,38.021 11.958,38.021C12.597,38.021 13.115,38.539 13.115,39.177L13.115,40.289L14.583,40.289L14.583,39.177C14.583,38.539 15.1,38.021 15.739,38.021C16.377,38.021 16.896,38.539 16.896,39.177L16.896,40.289L18.363,40.289L18.363,39.177C18.363,38.539 18.881,38.021 19.52,38.021C20.159,38.021 20.676,38.539 20.676,39.177L20.676,40.289L21.598,40.289L21.598,44.009ZM24.09,2.387C11.655,2.387 1.574,12.468 1.574,24.903C1.574,37.338 11.655,47.42 24.09,47.42C36.526,47.42 46.606,37.338 46.606,24.903C46.606,12.468 36.526,2.387 24.09,2.387ZM24.455,40.051L24.649,40.051L24.649,39.712L24.187,39.712L24.187,40.464L24.456,40.464L24.455,40.051ZM7.477,8.295C3.224,12.548 0.595,18.421 0.595,24.91C0.595,31.399 3.224,37.271 7.477,41.524C11.73,45.776 17.601,48.405 24.09,48.405C30.58,48.405 36.452,45.776 40.705,41.524C44.957,37.271 47.586,31.399 47.586,24.91C47.586,18.421 44.957,12.548 40.705,8.295C36.452,4.043 30.58,1.414 24.09,1.414C17.601,1.414 11.73,4.043 7.477,8.295ZM0,24.91C0,11.604 10.786,0.819 24.09,0.819C37.396,0.819 48.181,11.604 48.181,24.91C48.181,38.214 37.396,49 24.09,49C10.786,49 0,38.214 0,24.91ZM114.922,32.447L114.922,30.536L113.242,30.536L113.242,32.447L112.182,32.447L112.182,27.857L113.242,27.857L113.242,29.619L114.922,29.619L114.922,27.857L115.982,27.857L115.982,32.447L114.922,32.447ZM108.163,32.447L108.163,31.617L109.639,29.149C109.713,29.027 109.795,28.911 109.883,28.796C109.762,28.802 109.604,28.809 109.162,28.809L108.211,28.809L108.211,27.857L111.182,27.857L111.182,28.72L109.625,31.222C109.57,31.311 109.517,31.386 109.448,31.481C109.537,31.467 109.795,31.467 110.339,31.467L111.209,31.467L111.209,32.447L108.163,32.447ZM105.334,32.535C103.873,32.535 103.52,31.747 103.52,30.829L103.52,27.857L104.58,27.857L104.58,30.767C104.58,31.304 104.75,31.644 105.402,31.644C106.001,31.644 106.232,31.392 106.232,30.706L106.232,27.857L107.279,27.857L107.279,30.645C107.279,31.937 106.552,32.535 105.334,32.535ZM99.477,41.021L99.477,35.291C99.477,34.353 99.225,33.795 98.378,33.795C97.207,33.795 96.288,35.129 96.288,36.696L96.288,41.021L93.981,41.021L93.981,27.866L96.288,27.866L96.288,31.705C96.288,32.246 96.252,33.001 96.126,33.525L96.162,33.542C96.684,32.534 97.711,31.867 99.099,31.867C101.117,31.867 101.767,33.165 101.767,34.732L101.767,41.021L99.477,41.021ZM89.728,41.183C87.242,41.183 85.692,39.886 85.692,36.84C85.692,34.047 87.152,31.903 90.324,31.903C90.936,31.903 91.585,31.993 92.162,32.155L91.927,34.156C91.441,33.975 90.882,33.831 90.305,33.831C88.845,33.831 88.107,34.912 88.107,36.606C88.107,38.137 88.702,39.183 90.233,39.183C90.845,39.183 91.512,39.056 92,38.804L92.179,40.769C91.567,41.004 90.683,41.183 89.728,41.183ZM81.7,41.021L81.7,32.065L84.006,32.065L84.006,41.021L81.7,41.021ZM82.853,30.912C82.06,30.912 81.429,30.281 81.429,29.505C81.429,28.75 82.06,28.119 82.853,28.119C83.646,28.119 84.294,28.731 84.294,29.505C84.294,30.281 83.646,30.912 82.853,30.912ZM79.925,34.137C78.268,33.795 77.439,34.876 77.439,37.363L77.439,41.021L75.132,41.021L75.132,32.065L77.313,32.065C77.313,32.515 77.259,33.236 77.151,33.867L77.187,33.867C77.619,32.732 78.484,31.741 80.034,31.867L79.925,34.137ZM70.466,30.588C69.781,30.588 69.222,30.029 69.222,29.343C69.222,28.641 69.781,28.1 70.466,28.1C71.15,28.1 71.709,28.641 71.709,29.343C71.709,30.029 71.15,30.588 70.466,30.588ZM66.825,30.588C66.141,30.588 65.582,30.029 65.582,29.343C65.582,28.641 66.141,28.1 66.825,28.1C67.51,28.1 68.069,28.641 68.069,29.343C68.069,30.029 67.51,30.588 66.825,30.588ZM70.484,41.021C70.484,40.607 70.502,39.904 70.592,39.435L70.574,39.417C70.033,40.48 69.006,41.219 67.528,41.219C65.51,41.219 64.861,39.921 64.861,38.354L64.861,32.065L67.15,32.065L67.15,37.796C67.15,38.732 67.402,39.292 68.267,39.292C69.439,39.292 70.339,37.958 70.339,36.39L70.339,32.065L72.646,32.065L72.646,41.021L70.484,41.021ZM54.955,41.021L54.955,39.219L59.334,32.083C59.585,31.669 59.838,31.308 60.127,30.929C59.694,30.948 59.117,30.965 57.91,30.965L55.099,30.965L55.099,28.857L62.956,28.857L62.956,30.731L58.324,38.047C58.144,38.336 57.982,38.606 57.766,38.895C58.072,38.859 58.901,38.859 60.397,38.859L63.028,38.859L63.028,41.021L54.955,41.021ZM139.55,22.161C137.567,22.161 136.937,21.441 136.937,19.35L136.937,14.809L135.405,14.809L135.405,13.025L136.937,13.025L136.937,10.268L139.243,9.655L139.243,13.025L141.424,13.025L141.424,14.809L139.243,14.809L139.243,18.737C139.243,19.891 139.514,20.215 140.307,20.215C140.686,20.215 141.1,20.161 141.424,20.071L141.424,21.927C140.847,22.071 140.181,22.161 139.55,22.161ZM132.2,11.547C131.516,11.547 130.957,10.988 130.957,10.304C130.957,9.601 131.516,9.06 132.2,9.06C132.885,9.06 133.444,9.601 133.444,10.304C133.444,10.988 132.885,11.547 132.2,11.547ZM131.552,18.017C129.119,18.017 128.578,18.719 128.578,19.44C128.578,20.017 128.975,20.395 129.642,20.395C130.776,20.395 131.552,19.314 131.552,18.233L131.552,18.017ZM128.561,11.547C127.875,11.547 127.317,10.988 127.317,10.304C127.317,9.601 127.875,9.06 128.561,9.06C129.244,9.06 129.804,9.601 129.804,10.304C129.804,10.988 129.244,11.547 128.561,11.547ZM131.731,21.981C131.731,21.459 131.75,20.936 131.822,20.467L131.804,20.449C131.371,21.459 130.272,22.161 128.938,22.161C127.317,22.161 126.38,21.242 126.38,19.8C126.38,17.656 128.506,16.521 131.552,16.521L131.552,16.034C131.552,15.097 131.101,14.611 129.804,14.611C128.993,14.611 127.911,14.881 127.154,15.314L126.956,13.385C127.857,13.061 129.011,12.827 130.164,12.827C133.048,12.827 133.858,13.998 133.858,15.944L133.858,19.674C133.858,20.395 133.876,21.242 133.912,21.981L131.731,21.981ZM122.851,22.161C120.868,22.161 120.237,21.441 120.237,19.35L120.237,14.809L118.706,14.809L118.706,13.025L120.237,13.025L120.237,10.268L122.544,9.655L122.544,13.025L124.725,13.025L124.725,14.809L122.544,14.809L122.544,18.737C122.544,19.891 122.814,20.215 123.607,20.215C123.985,20.215 124.4,20.161 124.725,20.071L124.725,21.927C124.147,22.071 123.481,22.161 122.851,22.161ZM114.708,21.981L114.708,13.025L117.015,13.025L117.015,21.981L114.708,21.981ZM115.861,11.872C115.068,11.872 114.438,11.241 114.438,10.466C114.438,9.709 115.068,9.078 115.861,9.078C116.654,9.078 117.303,9.691 117.303,10.466C117.303,11.241 116.654,11.872 115.861,11.872ZM108.743,22.161C108.095,22.161 107.445,22.089 106.869,21.999L106.924,20.107C107.481,20.251 108.166,20.378 108.852,20.378C109.734,20.378 110.311,20.017 110.311,19.422C110.311,17.837 106.689,18.737 106.689,15.692C106.689,14.124 107.969,12.827 110.491,12.827C111.014,12.827 111.591,12.899 112.131,12.989L112.06,14.809C111.555,14.665 110.96,14.575 110.401,14.575C109.5,14.575 109.068,14.935 109.068,15.494C109.068,16.954 112.744,16.305 112.744,19.206C112.744,20.972 111.194,22.161 108.743,22.161ZM105.59,15.097C103.932,14.754 103.104,15.836 103.104,18.323L103.104,21.981L100.797,21.981L100.797,13.025L102.977,13.025C102.977,13.475 102.923,14.196 102.814,14.827L102.851,14.827C103.283,13.691 104.148,12.701 105.698,12.827L105.59,15.097ZM95.03,14.521C94.075,14.521 93.408,15.223 93.282,16.305L96.58,16.305C96.616,15.187 96.003,14.521 95.03,14.521ZM98.796,17.873L93.246,17.873C93.228,19.548 94.056,20.359 95.714,20.359C96.597,20.359 97.552,20.161 98.328,19.8L98.543,21.585C97.588,21.963 96.454,22.161 95.336,22.161C92.489,22.161 90.904,20.738 90.904,17.584C90.904,14.845 92.418,12.827 95.102,12.827C97.714,12.827 98.869,14.611 98.869,16.827C98.869,17.133 98.85,17.494 98.796,17.873ZM87.21,21.981L84.868,21.981L81.552,13.025L84.075,13.025L85.499,17.061C85.714,17.674 85.931,18.395 86.093,19.044L86.129,19.044C86.273,18.431 86.454,17.746 86.669,17.133L88.111,13.025L90.562,13.025L87.21,21.981ZM77.948,21.981L77.948,13.025L80.254,13.025L80.254,21.981L77.948,21.981ZM79.101,11.872C78.308,11.872 77.677,11.241 77.677,10.466C77.677,9.709 78.308,9.078 79.101,9.078C79.894,9.078 80.543,9.691 80.543,10.466C80.543,11.241 79.894,11.872 79.101,11.872ZM73.155,21.981L73.155,16.251C73.155,15.314 72.902,14.754 72.055,14.754C70.884,14.754 69.965,16.088 69.965,17.656L69.965,21.981L67.659,21.981L67.659,13.025L69.839,13.025C69.839,13.439 69.803,14.142 69.713,14.611L69.731,14.628C70.272,13.566 71.317,12.827 72.777,12.827C74.794,12.827 75.443,14.124 75.443,15.692L75.443,21.981L73.155,21.981ZM60.108,22.179C56.27,22.179 55.405,20.089 55.405,17.764L55.405,9.817L57.748,9.817L57.748,17.62C57.748,19.152 58.252,20.233 60.271,20.233C62.073,20.233 62.83,19.476 62.83,17.404L62.83,9.817L65.154,9.817L65.154,17.259C65.154,20.593 63.316,22.179 60.108,22.179ZM28.985,4.228C28.752,4.228 28.563,4.417 28.563,4.65C28.563,4.883 28.752,5.072 28.985,5.072C29.218,5.072 29.407,4.883 29.407,4.65C29.407,4.417 29.218,4.228 28.985,4.228ZM29.316,32.54L29.316,31.54C29.316,31.353 29.165,31.202 28.979,31.202C28.792,31.202 28.64,31.353 28.64,31.54L28.64,32.54L29.316,32.54ZM29.193,28.75L29.193,27.624C29.193,27.507 29.1,27.414 28.984,27.414C28.869,27.414 28.775,27.507 28.775,27.624L28.775,28.75L29.193,28.75ZM29.193,25.358L29.193,24.231C29.193,24.115 29.1,24.022 28.984,24.022C28.869,24.022 28.775,24.115 28.775,24.231L28.775,25.358L29.193,25.358ZM29.375,16.367L29.375,15.499C29.373,15.183 29.217,14.965 28.986,14.863C28.754,14.965 28.599,15.184 28.597,15.499L28.597,16.367L29.375,16.367ZM29.375,20.688L29.375,19.343C29.373,19.028 29.217,18.81 28.986,18.708C28.754,18.81 28.599,19.028 28.597,19.343L28.597,20.688L29.375,20.688ZM19.193,4.228C18.96,4.228 18.771,4.417 18.771,4.65C18.771,4.883 18.96,5.072 19.193,5.072C19.426,5.072 19.615,4.883 19.615,4.65C19.615,4.417 19.426,4.228 19.193,4.228ZM19.525,32.54L19.525,31.54C19.525,31.353 19.374,31.202 19.187,31.202C19,31.202 18.849,31.353 18.849,31.54L18.849,32.54L19.525,32.54ZM19.401,28.75L19.401,27.624C19.401,27.507 19.308,27.414 19.192,27.414C19.077,27.414 18.983,27.507 18.983,27.624L18.983,28.75L19.401,28.75ZM19.401,25.358L19.401,24.231C19.401,24.115 19.308,24.022 19.192,24.022C19.077,24.022 18.983,24.115 18.983,24.231L18.983,25.358L19.401,25.358ZM19.584,16.367L19.584,15.499C19.581,15.183 19.426,14.965 19.194,14.863C18.962,14.965 18.808,15.184 18.805,15.499L18.805,16.367L19.584,16.367ZM19.584,20.688L19.584,19.343C19.581,19.028 19.426,18.81 19.194,18.708C18.962,18.81 18.808,19.028 18.805,19.343L18.805,20.688L19.584,20.688ZM19.839,43.76C19.606,43.76 19.418,43.949 19.418,44.182C19.418,44.416 19.606,44.604 19.839,44.604C20.073,44.604 20.262,44.416 20.262,44.182C20.262,43.949 20.073,43.76 19.839,43.76ZM23.879,20.672L24.304,20.672L24.304,19.757L23.879,19.757L23.879,20.672ZM24.091,8.895C23.858,8.895 23.669,9.084 23.669,9.317C23.669,9.55 23.858,9.739 24.091,9.739C24.325,9.739 24.514,9.55 24.514,9.317C24.514,9.084 24.325,8.895 24.091,8.895ZM25.583,32.793L25.583,31.604C25.583,31.382 25.402,31.202 25.18,31.202C24.958,31.202 24.777,31.382 24.777,31.604L24.777,32.793L25.583,32.793ZM23.405,32.793L23.405,31.604C23.405,31.382 23.225,31.202 23.003,31.202C22.781,31.202 22.6,31.382 22.6,31.604L22.6,32.793L23.405,32.793ZM35.995,42.592C35.964,42.592 35.918,42.59 35.89,42.586C35.835,42.575 35.831,42.559 35.821,42.505C35.812,42.421 35.812,42.259 35.812,42.065L35.812,41.708C35.812,41.4 35.812,41.343 35.816,41.28C35.824,41.209 35.831,41.197 35.881,41.186C35.905,41.181 35.919,41.179 35.94,41.179C35.961,41.179 35.99,41.167 35.99,41.138C35.985,41.105 35.956,41.105 35.93,41.104C35.849,41.104 35.713,41.109 35.661,41.109C35.602,41.109 35.46,41.104 35.38,41.104C35.348,41.105 35.319,41.104 35.314,41.138C35.314,41.167 35.342,41.179 35.364,41.179C35.389,41.179 35.414,41.181 35.435,41.188C35.475,41.203 35.488,41.213 35.494,41.28C35.497,41.343 35.497,41.4 35.497,41.708L35.497,42.065C35.497,42.259 35.497,42.421 35.487,42.504C35.478,42.563 35.472,42.578 35.439,42.587C35.421,42.59 35.398,42.592 35.368,42.592C35.337,42.592 35.318,42.612 35.318,42.631C35.319,42.662 35.349,42.67 35.376,42.67C35.46,42.67 35.603,42.663 35.649,42.663C35.706,42.663 35.849,42.67 35.988,42.67C36.012,42.67 36.043,42.663 36.045,42.631C36.045,42.609 36.023,42.592 35.995,42.592ZM34.724,42.592C34.694,42.592 34.646,42.59 34.62,42.586C34.564,42.575 34.56,42.559 34.55,42.505C34.541,42.421 34.541,42.259 34.541,42.065L34.541,41.708C34.541,41.4 34.541,41.343 34.545,41.28C34.553,41.209 34.56,41.197 34.61,41.186C34.634,41.181 34.649,41.179 34.669,41.179C34.69,41.179 34.719,41.167 34.719,41.138C34.714,41.105 34.685,41.105 34.66,41.104C34.578,41.104 34.442,41.109 34.39,41.109C34.332,41.109 34.189,41.104 34.109,41.104C34.078,41.105 34.048,41.104 34.043,41.138C34.043,41.167 34.071,41.179 34.093,41.179C34.118,41.179 34.143,41.181 34.164,41.188C34.204,41.203 34.216,41.213 34.223,41.28C34.226,41.343 34.226,41.4 34.226,41.708L34.226,42.065C34.226,42.259 34.226,42.421 34.216,42.504C34.208,42.563 34.202,42.578 34.168,42.587C34.15,42.59 34.127,42.592 34.097,42.592C34.066,42.592 34.047,42.612 34.047,42.631C34.048,42.662 34.078,42.67 34.105,42.67C34.189,42.67 34.332,42.663 34.378,42.663C34.435,42.663 34.578,42.67 34.716,42.67C34.742,42.67 34.772,42.663 34.774,42.631C34.774,42.61 34.753,42.592 34.724,42.592ZM33.453,42.592C33.423,42.592 33.375,42.59 33.349,42.586C33.293,42.575 33.289,42.559 33.279,42.505C33.27,42.421 33.27,42.259 33.27,42.065L33.27,41.708C33.27,41.4 33.27,41.343 33.274,41.28C33.282,41.209 33.289,41.197 33.339,41.186C33.363,41.181 33.378,41.179 33.398,41.179C33.419,41.179 33.449,41.167 33.449,41.138C33.444,41.105 33.414,41.105 33.388,41.104C33.307,41.104 33.171,41.109 33.12,41.109C33.061,41.109 32.918,41.104 32.838,41.104C32.807,41.105 32.777,41.104 32.771,41.138C32.771,41.167 32.8,41.179 32.822,41.179C32.847,41.179 32.872,41.181 32.893,41.188C32.933,41.203 32.946,41.213 32.953,41.28C32.955,41.343 32.955,41.4 32.955,41.708L32.955,42.065C32.955,42.259 32.955,42.421 32.945,42.504C32.937,42.563 32.931,42.578 32.897,42.587C32.879,42.59 32.856,42.592 32.827,42.592C32.795,42.592 32.776,42.612 32.776,42.631C32.777,42.662 32.807,42.67 32.834,42.67C32.918,42.67 33.061,42.663 33.107,42.663C33.164,42.663 33.307,42.67 33.446,42.67C33.471,42.67 33.501,42.663 33.503,42.631C33.503,42.61 33.482,42.592 33.453,42.592ZM32.358,42.592C32.341,42.592 32.308,42.59 32.283,42.582C32.24,42.568 32.211,42.549 32.176,42.506C32.127,42.447 31.797,41.925 31.717,41.803L32.058,41.338C32.122,41.25 32.161,41.199 32.198,41.19C32.226,41.183 32.251,41.179 32.271,41.179C32.295,41.179 32.32,41.166 32.321,41.14C32.319,41.109 32.289,41.104 32.266,41.104C32.187,41.104 32.1,41.109 32.061,41.109C32.022,41.109 31.923,41.104 31.842,41.104C31.813,41.104 31.781,41.109 31.78,41.14C31.781,41.169 31.805,41.179 31.823,41.179C31.839,41.179 31.867,41.179 31.884,41.185C31.902,41.189 31.909,41.2 31.908,41.203C31.909,41.214 31.902,41.242 31.886,41.267C31.854,41.32 31.691,41.56 31.619,41.667C31.54,41.536 31.458,41.402 31.371,41.249C31.36,41.23 31.351,41.203 31.351,41.198C31.351,41.196 31.353,41.189 31.367,41.185C31.382,41.181 31.403,41.179 31.414,41.179C31.435,41.179 31.462,41.17 31.463,41.14C31.461,41.109 31.43,41.104 31.403,41.104C31.325,41.104 31.195,41.109 31.168,41.109C31.068,41.109 30.899,41.104 30.849,41.104C30.823,41.105 30.793,41.105 30.789,41.138C30.789,41.16 30.806,41.179 30.827,41.179C30.846,41.179 30.879,41.183 30.911,41.193C30.98,41.215 31.018,41.254 31.07,41.333L31.433,41.899L31.03,42.443C30.958,42.541 30.929,42.568 30.873,42.583C30.844,42.59 30.814,42.592 30.801,42.592C30.777,42.593 30.756,42.61 30.756,42.633C30.756,42.658 30.78,42.67 30.803,42.67L30.839,42.67C30.874,42.67 30.976,42.663 31.016,42.663C31.067,42.663 31.205,42.67 31.218,42.67L31.256,42.67C31.283,42.67 31.314,42.666 31.316,42.633C31.314,42.608 31.294,42.594 31.273,42.592C31.257,42.592 31.241,42.59 31.228,42.59C31.214,42.59 31.204,42.583 31.204,42.574L31.204,42.571C31.203,42.556 31.213,42.529 31.232,42.5L31.525,42.046C31.617,42.197 31.726,42.379 31.841,42.566C31.846,42.573 31.846,42.578 31.846,42.58C31.847,42.583 31.844,42.583 31.844,42.583C31.822,42.588 31.803,42.604 31.803,42.627C31.81,42.664 31.841,42.661 31.893,42.665C32.065,42.67 32.232,42.67 32.282,42.67L32.344,42.67C32.369,42.67 32.399,42.663 32.402,42.631C32.401,42.607 32.379,42.592 32.358,42.592ZM30.581,42.592C30.563,42.592 30.531,42.59 30.505,42.582C30.461,42.568 30.433,42.549 30.399,42.506C30.35,42.447 30.02,41.925 29.939,41.803L30.28,41.338C30.344,41.25 30.383,41.199 30.42,41.19C30.448,41.183 30.473,41.179 30.493,41.179C30.518,41.179 30.543,41.166 30.543,41.14C30.542,41.109 30.51,41.104 30.488,41.104C30.409,41.104 30.323,41.109 30.283,41.109C30.243,41.109 30.145,41.104 30.064,41.104C30.035,41.104 30.003,41.109 30.002,41.14C30.002,41.169 30.028,41.179 30.044,41.179C30.061,41.179 30.088,41.179 30.106,41.185C30.125,41.189 30.131,41.2 30.13,41.203C30.13,41.214 30.124,41.242 30.108,41.267C30.076,41.32 29.913,41.56 29.841,41.667C29.762,41.535 29.68,41.402 29.593,41.249C29.582,41.23 29.573,41.203 29.574,41.198C29.574,41.196 29.575,41.19 29.589,41.185C29.605,41.181 29.625,41.179 29.635,41.179C29.657,41.179 29.685,41.17 29.686,41.14C29.684,41.109 29.653,41.104 29.626,41.104C29.547,41.104 29.418,41.109 29.39,41.109C29.29,41.109 29.122,41.104 29.071,41.104C29.045,41.105 29.016,41.105 29.011,41.138C29.011,41.16 29.028,41.179 29.049,41.179C29.069,41.179 29.101,41.183 29.133,41.193C29.202,41.215 29.24,41.254 29.293,41.333L29.655,41.899L29.252,42.443C29.18,42.541 29.151,42.568 29.095,42.583C29.066,42.59 29.036,42.592 29.023,42.592C28.999,42.593 28.978,42.61 28.978,42.633C28.978,42.658 29.002,42.67 29.025,42.67L29.061,42.67C29.096,42.67 29.198,42.663 29.237,42.663C29.289,42.663 29.426,42.67 29.44,42.67L29.478,42.67C29.505,42.67 29.536,42.666 29.538,42.633C29.536,42.608 29.517,42.594 29.495,42.592C29.48,42.592 29.463,42.59 29.45,42.59C29.437,42.59 29.426,42.583 29.426,42.574C29.426,42.573 29.425,42.571 29.425,42.571C29.425,42.556 29.435,42.529 29.454,42.5L29.747,42.046C29.839,42.197 29.948,42.379 30.064,42.566C30.068,42.573 30.068,42.578 30.068,42.58C30.069,42.583 30.066,42.583 30.066,42.583C30.044,42.588 30.025,42.604 30.025,42.627C30.032,42.664 30.064,42.662 30.116,42.665C30.287,42.67 30.454,42.67 30.504,42.67L30.566,42.67C30.591,42.67 30.621,42.663 30.624,42.631C30.623,42.607 30.602,42.592 30.581,42.592ZM28.803,42.592C28.785,42.592 28.752,42.59 28.727,42.582C28.684,42.568 28.655,42.549 28.621,42.506C28.572,42.447 28.242,41.925 28.162,41.803L28.502,41.338C28.566,41.25 28.605,41.199 28.643,41.19C28.67,41.183 28.696,41.179 28.715,41.179C28.74,41.179 28.764,41.166 28.765,41.14C28.763,41.109 28.733,41.104 28.71,41.104C28.63,41.104 28.544,41.109 28.505,41.109C28.465,41.109 28.367,41.104 28.286,41.104C28.257,41.104 28.226,41.109 28.224,41.14C28.225,41.169 28.25,41.179 28.267,41.179C28.283,41.179 28.311,41.179 28.328,41.185C28.346,41.189 28.353,41.2 28.353,41.203C28.353,41.214 28.346,41.242 28.331,41.267C28.298,41.32 28.135,41.56 28.063,41.667C27.984,41.536 27.902,41.402 27.815,41.249C27.804,41.23 27.795,41.203 27.795,41.198C27.795,41.196 27.797,41.189 27.812,41.185C27.826,41.181 27.848,41.179 27.857,41.179C27.879,41.179 27.907,41.17 27.908,41.14C27.906,41.109 27.875,41.104 27.848,41.104C27.769,41.104 27.64,41.109 27.612,41.109C27.512,41.109 27.344,41.104 27.293,41.104C27.268,41.105 27.238,41.105 27.233,41.138C27.233,41.16 27.25,41.179 27.272,41.179C27.291,41.179 27.323,41.183 27.355,41.193C27.424,41.215 27.462,41.254 27.515,41.333L27.877,41.899L27.475,42.443C27.402,42.541 27.374,42.568 27.317,42.583C27.289,42.59 27.258,42.592 27.245,42.592C27.221,42.593 27.2,42.61 27.2,42.633C27.2,42.658 27.224,42.67 27.248,42.67L27.284,42.67C27.318,42.67 27.42,42.663 27.46,42.663C27.511,42.663 27.649,42.67 27.662,42.67L27.7,42.67C27.727,42.67 27.758,42.666 27.76,42.633C27.758,42.608 27.739,42.594 27.717,42.592C27.702,42.592 27.686,42.59 27.671,42.59C27.659,42.59 27.648,42.582 27.648,42.574C27.647,42.573 27.647,42.571 27.647,42.571C27.647,42.556 27.657,42.529 27.676,42.5L27.969,42.046C28.061,42.197 28.17,42.379 28.286,42.566C28.29,42.573 28.291,42.578 28.291,42.58C28.291,42.583 28.289,42.583 28.289,42.583C28.267,42.588 28.248,42.604 28.248,42.627C28.254,42.664 28.286,42.662 28.337,42.665C28.509,42.67 28.676,42.67 28.727,42.67L28.789,42.67C28.813,42.67 28.843,42.663 28.846,42.631C28.845,42.607 28.824,42.592 28.803,42.592ZM20.707,42.253C20.679,42.252 20.666,42.279 20.664,42.307C20.658,42.34 20.63,42.397 20.596,42.434C20.518,42.521 20.423,42.536 20.237,42.536C19.965,42.535 19.603,42.314 19.602,41.843C19.602,41.647 19.639,41.458 19.789,41.33C19.88,41.253 19.991,41.219 20.173,41.219C20.363,41.219 20.5,41.269 20.566,41.333C20.615,41.382 20.64,41.451 20.642,41.51C20.642,41.535 20.647,41.568 20.68,41.57C20.717,41.567 20.724,41.532 20.726,41.504C20.728,41.463 20.728,41.35 20.733,41.285C20.738,41.213 20.742,41.191 20.742,41.171C20.744,41.151 20.724,41.131 20.696,41.131C20.636,41.124 20.567,41.109 20.487,41.097C20.392,41.086 20.312,41.076 20.18,41.076C19.866,41.076 19.66,41.159 19.504,41.295C19.3,41.478 19.253,41.72 19.253,41.862C19.253,42.06 19.31,42.296 19.522,42.472C19.716,42.636 19.963,42.696 20.252,42.696C20.389,42.696 20.548,42.684 20.636,42.649C20.673,42.636 20.693,42.616 20.701,42.579C20.724,42.506 20.747,42.333 20.747,42.305C20.747,42.284 20.738,42.255 20.707,42.253ZM19.029,42.253C19.001,42.252 18.988,42.279 18.985,42.307C18.98,42.34 18.952,42.397 18.918,42.434C18.84,42.521 18.746,42.536 18.56,42.536C18.287,42.535 17.925,42.314 17.924,41.843C17.924,41.647 17.962,41.458 18.111,41.33C18.203,41.253 18.314,41.219 18.495,41.219C18.685,41.219 18.822,41.269 18.888,41.333C18.937,41.382 18.961,41.451 18.964,41.51C18.964,41.535 18.969,41.568 19.002,41.57C19.039,41.567 19.045,41.532 19.048,41.504C19.05,41.463 19.05,41.35 19.055,41.285C19.06,41.213 19.064,41.191 19.065,41.171C19.066,41.151 19.045,41.131 19.018,41.131C18.958,41.124 18.889,41.109 18.81,41.097C18.714,41.086 18.634,41.076 18.502,41.076C18.188,41.076 17.982,41.159 17.827,41.295C17.622,41.478 17.576,41.72 17.576,41.862C17.575,42.06 17.631,42.296 17.844,42.472C18.039,42.636 18.286,42.696 18.574,42.696C18.71,42.696 18.871,42.684 18.959,42.649C18.996,42.636 19.016,42.616 19.023,42.579C19.045,42.506 19.069,42.333 19.069,42.305C19.069,42.284 19.06,42.255 19.029,42.253ZM17.351,42.253C17.323,42.252 17.31,42.279 17.308,42.307C17.302,42.34 17.274,42.397 17.24,42.434C17.162,42.521 17.067,42.536 16.882,42.536C16.609,42.535 16.247,42.314 16.246,41.843C16.246,41.647 16.284,41.458 16.433,41.33C16.524,41.253 16.636,41.219 16.817,41.219C17.007,41.219 17.144,41.269 17.21,41.333C17.259,41.382 17.284,41.451 17.286,41.51C17.286,41.535 17.291,41.568 17.325,41.57C17.361,41.567 17.368,41.532 17.37,41.504C17.373,41.463 17.373,41.35 17.377,41.285C17.382,41.213 17.387,41.191 17.387,41.171C17.389,41.151 17.368,41.131 17.34,41.131C17.28,41.124 17.211,41.109 17.132,41.097C17.036,41.086 16.956,41.076 16.824,41.076C16.51,41.076 16.304,41.159 16.149,41.295C15.944,41.478 15.898,41.72 15.898,41.862C15.898,42.06 15.954,42.296 16.166,42.472C16.36,42.636 16.608,42.696 16.896,42.696C17.033,42.696 17.192,42.684 17.281,42.649C17.318,42.636 17.337,42.616 17.346,42.579C17.368,42.506 17.391,42.333 17.391,42.305C17.391,42.284 17.382,42.255 17.351,42.253ZM15.368,41.924C15.368,42.131 15.325,42.306 15.196,42.414C15.073,42.515 14.938,42.547 14.75,42.547C14.587,42.548 14.509,42.504 14.489,42.474C14.478,42.463 14.47,42.388 14.469,42.34C14.466,42.3 14.463,42.145 14.463,41.931L14.463,41.676C14.463,41.517 14.463,41.35 14.466,41.282C14.468,41.26 14.466,41.264 14.481,41.256C14.49,41.25 14.564,41.243 14.604,41.244C14.767,41.244 14.99,41.264 15.178,41.432C15.268,41.509 15.368,41.671 15.368,41.924ZM15.499,41.34C15.264,41.103 14.906,41.105 14.645,41.105C14.518,41.105 14.367,41.109 14.304,41.109C14.245,41.109 14.111,41.105 14.002,41.105C13.972,41.105 13.94,41.107 13.937,41.14C13.938,41.17 13.966,41.179 13.989,41.179C14.019,41.179 14.055,41.181 14.068,41.185C14.132,41.207 14.139,41.213 14.146,41.28C14.149,41.343 14.149,41.4 14.149,41.708L14.149,42.064C14.149,42.25 14.149,42.41 14.139,42.494C14.131,42.553 14.122,42.58 14.09,42.587C14.073,42.59 14.051,42.592 14.021,42.592C13.99,42.592 13.97,42.612 13.97,42.631C13.971,42.661 14.001,42.67 14.028,42.67C14.071,42.67 14.124,42.667 14.173,42.665C14.223,42.665 14.269,42.663 14.292,42.663C14.343,42.663 14.419,42.667 14.502,42.674C14.586,42.679 14.677,42.686 14.754,42.686C15.144,42.686 15.37,42.542 15.468,42.443C15.59,42.324 15.702,42.127 15.702,41.867C15.702,41.622 15.607,41.448 15.499,41.34ZM13.791,42.592C13.766,42.592 13.735,42.59 13.676,42.574C13.623,42.559 13.606,42.516 13.586,42.388L13.396,41.138C13.387,41.09 13.362,41.061 13.331,41.059C13.301,41.06 13.279,41.083 13.261,41.119L12.714,42.231L12.168,41.133C12.14,41.078 12.118,41.059 12.088,41.059C12.058,41.06 12.036,41.088 12.031,41.125L11.824,42.448C11.815,42.515 11.792,42.588 11.752,42.588C11.72,42.592 11.707,42.592 11.69,42.592C11.665,42.592 11.642,42.604 11.64,42.629C11.64,42.663 11.674,42.67 11.695,42.67C11.763,42.67 11.863,42.663 11.902,42.663C11.939,42.663 12.035,42.67 12.124,42.67C12.153,42.67 12.189,42.666 12.19,42.629C12.188,42.602 12.164,42.593 12.14,42.592C12.123,42.592 12.106,42.59 12.07,42.583C12.035,42.576 12.02,42.568 12.019,42.541C12.019,42.508 12.022,42.483 12.026,42.448L12.121,41.702C12.191,41.845 12.296,42.061 12.311,42.095C12.335,42.155 12.502,42.463 12.551,42.556C12.586,42.617 12.606,42.663 12.65,42.667C12.689,42.665 12.701,42.636 12.749,42.544L13.18,41.677L13.29,42.509C13.293,42.527 13.293,42.542 13.293,42.552C13.294,42.577 13.291,42.576 13.292,42.578C13.276,42.583 13.258,42.591 13.257,42.615C13.259,42.644 13.286,42.654 13.335,42.656C13.419,42.661 13.716,42.67 13.77,42.67C13.8,42.669 13.836,42.667 13.841,42.629C13.839,42.6 13.812,42.592 13.791,42.592ZM40.502,31.25C40.549,31.205 40.571,31.203 40.647,31.235C40.835,31.316 41.035,31.42 41.088,31.446C41.139,31.472 41.172,31.499 41.16,31.526C41.147,31.557 41.114,31.547 41.087,31.535C41.043,31.516 40.964,31.499 40.898,31.491C40.612,31.457 40.432,31.619 40.34,31.832C40.206,32.14 40.35,32.381 40.532,32.461C40.7,32.533 40.88,32.55 41.227,32.361L41.418,32.257C41.877,32.007 42.173,31.98 42.451,32.101C42.829,32.264 42.963,32.697 42.757,33.173C42.661,33.397 42.564,33.526 42.502,33.605C42.481,33.633 42.463,33.646 42.439,33.635C42.395,33.616 42.301,33.559 42.034,33.443C41.959,33.411 41.935,33.388 41.947,33.361C41.958,33.338 41.982,33.336 42.024,33.354C42.055,33.367 42.168,33.396 42.289,33.363C42.377,33.339 42.522,33.284 42.619,33.061C42.729,32.807 42.648,32.588 42.442,32.5C42.284,32.431 42.129,32.459 41.791,32.65L41.677,32.714C41.185,32.996 40.884,33.041 40.558,32.899C40.359,32.813 40.155,32.635 40.101,32.319C40.065,32.099 40.117,31.894 40.196,31.712C40.282,31.513 40.373,31.369 40.502,31.25ZM42.704,29.931C43.251,30.086 43.352,30.114 43.469,30.139C43.593,30.167 43.665,30.148 43.705,30.074C43.727,30.038 43.744,29.992 43.756,29.949C43.766,29.913 43.779,29.893 43.808,29.901C43.83,29.908 43.829,29.938 43.813,29.996C43.774,30.132 43.699,30.356 43.669,30.461C43.644,30.55 43.595,30.765 43.556,30.902C43.543,30.949 43.528,30.976 43.506,30.97C43.478,30.962 43.476,30.938 43.486,30.902C43.497,30.866 43.502,30.837 43.506,30.791C43.516,30.689 43.462,30.643 43.338,30.6C43.226,30.56 43.125,30.532 42.578,30.378L41.945,30.198C41.596,30.099 41.312,30.019 41.153,29.99C41.053,29.973 40.981,29.98 40.936,30.084C40.915,30.132 40.885,30.21 40.87,30.263C40.858,30.303 40.842,30.318 40.825,30.313C40.799,30.306 40.796,30.274 40.808,30.234C40.875,29.997 40.95,29.773 40.977,29.675C41.001,29.593 41.054,29.364 41.095,29.219C41.108,29.172 41.126,29.151 41.151,29.158C41.169,29.163 41.176,29.18 41.164,29.224C41.148,29.277 41.143,29.323 41.141,29.357C41.135,29.433 41.19,29.472 41.292,29.512C41.438,29.573 41.722,29.653 42.071,29.752L42.704,29.931ZM41.585,26.756C41.619,26.701 41.639,26.692 41.72,26.704C41.924,26.734 42.144,26.78 42.203,26.793C42.258,26.804 42.297,26.821 42.293,26.85C42.288,26.884 42.254,26.882 42.225,26.879C42.176,26.872 42.097,26.876 42.031,26.884C41.745,26.926 41.614,27.13 41.581,27.36C41.533,27.693 41.735,27.888 41.932,27.917C42.113,27.943 42.292,27.912 42.576,27.639L42.734,27.488C43.111,27.127 43.39,27.023 43.69,27.066C44.097,27.125 44.34,27.507 44.267,28.022C44.232,28.262 44.173,28.413 44.133,28.505C44.121,28.538 44.107,28.554 44.081,28.55C44.033,28.544 43.928,28.513 43.639,28.472C43.558,28.461 43.53,28.445 43.534,28.416C43.538,28.389 43.561,28.381 43.606,28.388C43.639,28.392 43.756,28.39 43.864,28.327C43.942,28.281 44.069,28.19 44.103,27.949C44.143,27.675 44.007,27.486 43.785,27.454C43.615,27.429 43.473,27.496 43.196,27.77L43.103,27.863C42.702,28.261 42.424,28.384 42.072,28.334C41.857,28.303 41.614,28.185 41.478,27.893C41.386,27.691 41.382,27.479 41.411,27.283C41.442,27.068 41.492,26.906 41.585,26.756ZM42.086,23.306C41.795,23.324 41.7,23.376 41.676,23.452C41.656,23.516 41.655,23.588 41.657,23.647C41.658,23.688 41.652,23.711 41.629,23.712C41.599,23.713 41.59,23.679 41.589,23.627C41.58,23.384 41.586,23.234 41.584,23.163C41.583,23.129 41.565,22.954 41.558,22.76C41.556,22.712 41.559,22.677 41.592,22.676C41.615,22.675 41.624,22.698 41.625,22.735C41.627,22.784 41.632,22.851 41.649,22.902C41.683,22.999 41.792,23.01 42.117,23.002L44.331,22.958C44.406,22.955 44.459,22.964 44.46,23.002C44.461,23.043 44.414,23.078 44.349,23.144C44.302,23.191 43.712,23.78 43.19,24.345C42.945,24.608 42.424,25.132 42.367,25.197L42.367,25.216L44.044,25.12C44.272,25.108 44.342,25.071 44.377,24.981C44.397,24.923 44.394,24.834 44.392,24.782C44.39,24.737 44.401,24.721 44.423,24.721C44.453,24.719 44.459,24.76 44.46,24.816C44.467,25.01 44.462,25.191 44.465,25.269C44.466,25.31 44.483,25.452 44.489,25.635C44.491,25.684 44.489,25.721 44.459,25.722C44.436,25.723 44.424,25.701 44.422,25.656C44.421,25.619 44.42,25.589 44.408,25.545C44.374,25.441 44.294,25.414 44.085,25.418L41.725,25.46C41.643,25.463 41.608,25.449 41.607,25.415C41.606,25.374 41.645,25.328 41.685,25.286C41.901,25.042 42.374,24.546 42.745,24.144C43.134,23.722 43.586,23.291 43.655,23.221L43.655,23.21L42.086,23.306ZM42.775,20.114C43.33,19.989 43.432,19.966 43.547,19.933C43.669,19.898 43.721,19.856 43.72,19.729C43.72,19.698 43.71,19.635 43.699,19.585C43.689,19.545 43.692,19.521 43.717,19.515C43.743,19.509 43.756,19.533 43.769,19.588C43.791,19.687 43.811,19.793 43.832,19.884C43.849,19.98 43.864,20.065 43.876,20.116C43.902,20.233 44.065,20.959 44.084,21.027C44.107,21.095 44.127,21.152 44.141,21.179C44.149,21.197 44.165,21.216 44.169,21.235C44.173,21.253 44.159,21.26 44.141,21.264C44.116,21.27 44.068,21.261 43.897,21.288C43.86,21.293 43.698,21.321 43.652,21.324C43.633,21.324 43.61,21.322 43.604,21.296C43.598,21.271 43.615,21.259 43.647,21.252C43.673,21.247 43.734,21.229 43.774,21.201C43.834,21.16 43.87,21.114 43.851,20.926C43.844,20.863 43.765,20.478 43.749,20.405C43.745,20.387 43.732,20.382 43.707,20.388L42.783,20.595C42.757,20.601 42.744,20.608 42.749,20.629C42.767,20.71 42.861,21.129 42.887,21.212C42.914,21.298 42.938,21.35 42.981,21.375C43.016,21.394 43.038,21.404 43.042,21.422C43.045,21.437 43.041,21.45 43.019,21.455C42.997,21.46 42.935,21.458 42.746,21.485C42.671,21.498 42.523,21.52 42.498,21.526C42.468,21.532 42.428,21.542 42.421,21.508C42.415,21.483 42.428,21.472 42.446,21.468C42.482,21.457 42.53,21.446 42.575,21.424C42.644,21.389 42.687,21.326 42.671,21.188C42.663,21.117 42.585,20.754 42.565,20.667C42.562,20.649 42.546,20.649 42.524,20.653L42.236,20.718C42.112,20.746 41.775,20.818 41.67,20.845C41.42,20.909 41.378,20.98 41.462,21.352C41.483,21.447 41.518,21.6 41.583,21.685C41.648,21.77 41.734,21.797 41.89,21.789C41.931,21.787 41.948,21.791 41.954,21.817C41.96,21.846 41.931,21.852 41.894,21.861C41.81,21.879 41.556,21.906 41.479,21.904C41.378,21.9 41.371,21.867 41.339,21.728C41.278,21.455 41.24,21.253 41.209,21.094C41.18,20.936 41.159,20.822 41.134,20.713C41.126,20.672 41.107,20.592 41.084,20.505C41.065,20.421 41.037,20.328 41.02,20.255C41.009,20.208 41.014,20.18 41.04,20.174C41.058,20.17 41.073,20.182 41.083,20.226C41.095,20.28 41.112,20.323 41.127,20.354C41.157,20.423 41.242,20.424 41.351,20.415C41.508,20.399 41.797,20.334 42.132,20.258L42.775,20.114ZM40.314,17.312C40.471,16.851 40.82,16.601 41.156,16.462C41.391,16.365 41.828,16.269 42.27,16.475C42.6,16.629 42.875,16.9 43.087,17.415C43.176,17.629 43.215,17.763 43.26,17.93C43.297,18.069 43.312,18.192 43.344,18.3C43.356,18.339 43.345,18.36 43.324,18.369C43.296,18.38 43.251,18.387 43.127,18.43C43.01,18.471 42.822,18.553 42.75,18.574C42.696,18.592 42.666,18.597 42.653,18.566C42.642,18.538 42.667,18.52 42.715,18.5C42.82,18.452 42.923,18.357 42.977,18.234C43.051,18.069 43.033,17.761 42.901,17.443C42.776,17.143 42.619,16.978 42.418,16.882C42.083,16.726 41.727,16.796 41.392,16.935C40.569,17.275 40.42,18.069 40.612,18.532C40.739,18.839 40.851,19.012 41.067,19.085C41.157,19.116 41.276,19.12 41.343,19.108C41.403,19.095 41.419,19.096 41.431,19.124C41.441,19.148 41.42,19.165 41.392,19.176C41.351,19.193 41.033,19.276 40.901,19.291C40.835,19.297 40.813,19.291 40.764,19.242C40.651,19.127 40.519,18.874 40.427,18.653C40.231,18.18 40.17,17.739 40.314,17.312ZM40.591,14.932C41.081,14.644 41.17,14.59 41.27,14.524C41.376,14.453 41.412,14.388 41.386,14.307C41.375,14.266 41.353,14.223 41.331,14.184C41.311,14.152 41.307,14.128 41.332,14.113C41.352,14.102 41.373,14.124 41.404,14.176C41.476,14.298 41.585,14.507 41.641,14.6C41.688,14.681 41.81,14.865 41.882,14.987C41.907,15.029 41.916,15.059 41.896,15.07C41.871,15.085 41.853,15.07 41.834,15.038C41.814,15.005 41.796,14.981 41.767,14.947C41.7,14.869 41.629,14.875 41.513,14.936C41.406,14.99 41.316,15.043 40.826,15.332L40.259,15.666C39.947,15.85 39.692,16 39.561,16.095C39.48,16.156 39.435,16.213 39.479,16.317C39.5,16.366 39.535,16.44 39.564,16.489C39.584,16.524 39.584,16.546 39.568,16.555C39.545,16.569 39.521,16.548 39.5,16.513C39.375,16.301 39.264,16.092 39.213,16.005C39.169,15.931 39.04,15.734 38.964,15.604C38.939,15.563 38.936,15.534 38.959,15.521C38.975,15.512 38.992,15.519 39.014,15.557C39.043,15.606 39.072,15.641 39.096,15.666C39.147,15.723 39.213,15.71 39.312,15.665C39.457,15.601 39.711,15.451 40.024,15.267L40.591,14.932ZM38.656,12.729C38.624,12.755 38.617,12.77 38.625,12.798C38.653,12.875 38.715,12.97 38.773,13.043C38.868,13.159 38.91,13.188 38.99,13.21C39.124,13.246 39.326,13.222 39.565,13.03C39.979,12.697 39.877,12.327 39.739,12.155C39.681,12.082 39.635,12.032 39.603,12.01C39.581,11.994 39.565,11.998 39.542,12.016L38.656,12.729ZM38.609,12.2C39.052,11.844 39.133,11.778 39.222,11.697C39.316,11.612 39.344,11.551 39.287,11.439C39.274,11.411 39.237,11.359 39.205,11.318C39.179,11.286 39.17,11.264 39.191,11.247C39.211,11.231 39.234,11.247 39.269,11.29C39.393,11.444 39.532,11.635 39.582,11.696C39.661,11.795 39.848,12.009 39.92,12.1C40.068,12.284 40.208,12.493 40.227,12.737C40.237,12.863 40.182,13.099 39.987,13.256C39.772,13.43 39.501,13.499 39.025,13.397C38.908,13.919 38.81,14.329 38.768,14.646C38.73,14.945 38.806,15.081 38.833,15.131C38.853,15.168 38.871,15.197 38.889,15.22C38.908,15.244 38.909,15.262 38.894,15.274C38.871,15.293 38.849,15.277 38.82,15.242L38.598,14.965C38.466,14.802 38.422,14.717 38.402,14.609C38.368,14.43 38.416,14.209 38.509,13.865C38.576,13.62 38.666,13.326 38.679,13.253C38.685,13.225 38.673,13.205 38.657,13.184L38.459,12.926C38.447,12.912 38.435,12.908 38.417,12.921L38.376,12.955C38.105,13.172 37.875,13.358 37.764,13.471C37.687,13.547 37.637,13.617 37.696,13.713C37.725,13.762 37.771,13.831 37.799,13.866C37.818,13.889 37.818,13.908 37.804,13.92C37.783,13.936 37.758,13.922 37.728,13.884C37.592,13.715 37.427,13.493 37.392,13.449C37.347,13.394 37.191,13.217 37.097,13.101C37.066,13.063 37.059,13.036 37.079,13.019C37.094,13.007 37.112,13.012 37.14,13.047C37.175,13.09 37.209,13.121 37.236,13.143C37.294,13.191 37.371,13.154 37.464,13.098C37.598,13.014 37.829,12.829 38.096,12.613L38.609,12.2ZM35.774,9.53C36.145,9.099 36.212,9.019 36.285,8.923C36.362,8.822 36.378,8.757 36.302,8.657C36.284,8.632 36.238,8.587 36.198,8.554C36.167,8.527 36.155,8.506 36.172,8.487C36.189,8.467 36.214,8.478 36.256,8.515C36.407,8.644 36.579,8.806 36.664,8.879C36.731,8.937 36.918,9.083 37.02,9.17C37.062,9.207 37.078,9.229 37.06,9.249C37.043,9.269 37.021,9.26 36.993,9.236C36.962,9.209 36.942,9.197 36.903,9.173C36.814,9.122 36.751,9.151 36.66,9.245C36.576,9.331 36.508,9.411 36.137,9.842L35.796,10.239C35.443,10.651 35.377,10.895 35.418,11.128C35.457,11.342 35.577,11.465 35.673,11.548C35.798,11.655 35.986,11.747 36.197,11.731C36.487,11.709 36.714,11.46 36.965,11.168L37.27,10.814C37.64,10.382 37.709,10.303 37.781,10.208C37.858,10.106 37.874,10.041 37.797,9.941C37.779,9.916 37.734,9.872 37.703,9.844C37.671,9.818 37.659,9.797 37.676,9.778C37.693,9.758 37.718,9.769 37.757,9.803C37.902,9.927 38.074,10.089 38.077,10.092C38.111,10.121 38.297,10.266 38.408,10.361C38.447,10.395 38.462,10.418 38.445,10.438C38.428,10.458 38.406,10.449 38.372,10.419C38.341,10.393 38.322,10.381 38.283,10.357C38.194,10.306 38.129,10.335 38.039,10.429C37.955,10.515 37.887,10.594 37.517,11.026L37.256,11.329C36.986,11.644 36.667,11.952 36.253,11.952C35.903,11.952 35.672,11.808 35.488,11.65C35.337,11.521 35.072,11.278 35.026,10.913C34.993,10.659 35.065,10.356 35.418,9.944L35.774,9.53ZM34.088,7.403L33.6,7.133C33.409,7.03 33.322,7.001 33.232,7.044C33.171,7.073 33.132,7.102 33.111,7.124C33.089,7.146 33.072,7.153 33.052,7.142C33.03,7.129 33.033,7.109 33.054,7.073C33.084,7.022 33.318,6.764 33.339,6.742C33.374,6.706 33.395,6.692 33.414,6.704C33.44,6.719 33.453,6.77 33.53,6.824C33.618,6.888 33.737,6.966 33.843,7.029L35.121,7.779C35.224,7.839 35.301,7.872 35.353,7.894C35.407,7.912 35.437,7.921 35.45,7.928C35.472,7.942 35.464,7.963 35.436,8.011C35.396,8.079 35.256,8.296 35.207,8.38C35.184,8.411 35.167,8.426 35.147,8.415C35.122,8.399 35.125,8.379 35.15,8.329L35.168,8.292C35.21,8.204 35.176,8.063 34.893,7.888L34.492,7.639L33.715,8.962C33.541,9.259 33.391,9.514 33.326,9.663C33.283,9.758 33.26,9.841 33.35,9.911C33.391,9.943 33.459,9.992 33.506,10.02C33.542,10.041 33.552,10.06 33.543,10.076C33.53,10.099 33.499,10.093 33.463,10.072C33.25,9.948 33.052,9.818 32.962,9.766C32.888,9.722 32.679,9.612 32.55,9.537C32.508,9.512 32.491,9.489 32.504,9.466C32.513,9.45 32.532,9.448 32.571,9.471C32.619,9.5 32.662,9.516 32.695,9.526C32.767,9.551 32.828,9.492 32.892,9.404C32.988,9.278 33.137,9.023 33.312,8.726L34.088,7.403ZM14.556,10.12C14.492,10.128 14.472,10.118 14.43,10.047C14.326,9.87 14.224,9.669 14.197,9.616C14.171,9.565 14.16,9.524 14.186,9.509C14.215,9.492 14.235,9.519 14.251,9.545C14.275,9.586 14.328,9.647 14.377,9.692C14.588,9.888 14.83,9.862 15.029,9.744C15.319,9.572 15.344,9.293 15.243,9.122C15.149,8.964 15.013,8.845 14.623,8.794L14.406,8.766C13.888,8.699 13.632,8.546 13.478,8.286C13.268,7.932 13.414,7.502 13.861,7.237C14.07,7.113 14.224,7.065 14.321,7.039C14.354,7.028 14.376,7.028 14.389,7.05C14.414,7.092 14.456,7.193 14.605,7.444C14.647,7.515 14.652,7.546 14.627,7.562C14.604,7.575 14.583,7.561 14.56,7.523C14.543,7.494 14.468,7.404 14.351,7.36C14.266,7.328 14.116,7.286 13.907,7.41C13.668,7.551 13.606,7.775 13.72,7.968C13.808,8.116 13.949,8.185 14.335,8.23L14.466,8.244C15.028,8.306 15.298,8.446 15.48,8.751C15.59,8.938 15.651,9.202 15.509,9.49C15.409,9.688 15.246,9.824 15.076,9.925C14.889,10.036 14.731,10.099 14.556,10.12ZM12.614,10.144C12.628,10.132 12.624,10.122 12.614,10.115L11.775,9.603C11.763,9.593 11.748,9.581 11.739,9.588C11.731,9.595 11.736,9.614 11.743,9.628L12.047,10.562C12.054,10.576 12.064,10.583 12.076,10.573L12.614,10.144ZM12.134,10.766C12.119,10.778 12.118,10.789 12.126,10.811L12.302,11.354C12.331,11.451 12.372,11.533 12.4,11.568C12.442,11.621 12.499,11.637 12.589,11.565L12.633,11.53C12.668,11.503 12.682,11.501 12.696,11.519C12.714,11.542 12.702,11.562 12.669,11.588C12.576,11.662 12.443,11.753 12.353,11.826C12.32,11.852 12.167,11.989 12.014,12.11C11.977,12.14 11.954,12.149 11.936,12.125C11.921,12.107 11.929,12.092 11.952,12.074C11.978,12.053 12.017,12.017 12.038,11.996C12.159,11.871 12.135,11.727 12.077,11.534L11.346,9.113C11.314,9 11.305,8.954 11.335,8.931C11.361,8.91 11.399,8.922 11.482,8.966C11.681,9.071 13.1,9.89 13.641,10.186C13.962,10.36 14.08,10.334 14.153,10.299C14.204,10.273 14.25,10.241 14.285,10.212C14.308,10.194 14.325,10.185 14.341,10.206C14.36,10.229 14.338,10.256 14.231,10.342C14.125,10.426 13.912,10.596 13.673,10.777C13.618,10.816 13.584,10.844 13.567,10.824C13.553,10.806 13.56,10.791 13.587,10.765C13.603,10.743 13.602,10.7 13.56,10.676L12.831,10.243C12.814,10.233 12.8,10.234 12.786,10.246L12.134,10.766ZM9.294,11.225L8.922,11.64C8.779,11.803 8.731,11.881 8.752,11.979C8.767,12.044 8.787,12.088 8.804,12.115C8.82,12.141 8.824,12.159 8.808,12.175C8.79,12.194 8.771,12.187 8.742,12.159C8.698,12.118 8.5,11.832 8.483,11.806C8.455,11.765 8.447,11.741 8.462,11.725C8.482,11.703 8.535,11.702 8.605,11.639C8.687,11.568 8.791,11.469 8.875,11.379L9.892,10.303C9.975,10.216 10.023,10.149 10.056,10.103C10.086,10.054 10.102,10.027 10.112,10.017C10.129,9.998 10.148,10.01 10.189,10.049C10.247,10.103 10.426,10.288 10.497,10.355C10.522,10.383 10.533,10.404 10.517,10.42C10.497,10.442 10.478,10.435 10.435,10.399L10.402,10.374C10.327,10.312 10.181,10.314 9.947,10.55L9.615,10.885L10.73,11.938C10.98,12.174 11.195,12.378 11.325,12.474C11.408,12.538 11.483,12.578 11.571,12.506C11.613,12.474 11.675,12.419 11.713,12.378C11.742,12.348 11.762,12.342 11.776,12.356C11.795,12.374 11.783,12.403 11.754,12.432C11.585,12.612 11.415,12.775 11.343,12.852C11.284,12.914 11.13,13.093 11.028,13.202C10.995,13.237 10.968,13.249 10.949,13.231C10.936,13.218 10.938,13.199 10.968,13.167C11.007,13.126 11.032,13.088 11.05,13.059C11.09,12.994 11.046,12.921 10.975,12.838C10.874,12.717 10.659,12.514 10.409,12.278L9.294,11.225ZM8.373,13.744C7.913,13.408 7.829,13.347 7.728,13.282C7.621,13.213 7.547,13.206 7.483,13.261C7.45,13.288 7.418,13.325 7.392,13.361C7.37,13.392 7.351,13.405 7.326,13.388C7.308,13.375 7.32,13.346 7.355,13.297C7.439,13.183 7.587,12.999 7.651,12.911C7.706,12.835 7.827,12.651 7.911,12.536C7.939,12.497 7.963,12.477 7.981,12.49C8.005,12.508 7.998,12.53 7.976,12.561C7.954,12.591 7.939,12.617 7.919,12.658C7.875,12.75 7.908,12.812 8.01,12.895C8.102,12.972 8.187,13.034 8.646,13.369L9.178,13.757C9.471,13.971 9.709,14.145 9.849,14.228C9.937,14.278 10.006,14.296 10.085,14.215C10.122,14.177 10.176,14.115 10.21,14.069C10.233,14.036 10.253,14.028 10.269,14.039C10.29,14.054 10.281,14.085 10.257,14.118C10.112,14.317 9.963,14.501 9.904,14.583C9.853,14.652 9.724,14.85 9.635,14.97C9.606,15.01 9.582,15.024 9.561,15.009C9.546,14.998 9.545,14.979 9.572,14.943C9.605,14.897 9.625,14.857 9.639,14.825C9.671,14.756 9.633,14.7 9.552,14.628C9.436,14.52 9.198,14.345 8.904,14.131L8.373,13.744ZM8.458,16.833C8.406,16.872 8.384,16.873 8.312,16.832C8.133,16.731 7.946,16.607 7.896,16.574C7.849,16.543 7.818,16.513 7.833,16.487C7.85,16.458 7.881,16.471 7.907,16.486C7.949,16.51 8.025,16.536 8.089,16.55C8.371,16.616 8.568,16.474 8.682,16.272C8.848,15.979 8.731,15.723 8.559,15.625C8.399,15.535 8.222,15.499 7.857,15.649L7.655,15.732C7.172,15.931 6.875,15.925 6.611,15.776C6.253,15.572 6.166,15.128 6.423,14.675C6.543,14.463 6.653,14.345 6.724,14.274C6.747,14.249 6.766,14.238 6.789,14.25C6.831,14.274 6.918,14.341 7.171,14.485C7.243,14.526 7.264,14.55 7.249,14.576C7.236,14.599 7.211,14.598 7.172,14.576C7.143,14.559 7.033,14.518 6.909,14.538C6.82,14.552 6.668,14.591 6.548,14.802C6.412,15.043 6.468,15.269 6.664,15.379C6.813,15.464 6.97,15.455 7.328,15.301L7.448,15.249C7.967,15.023 8.271,15.011 8.581,15.186C8.769,15.293 8.953,15.492 8.973,15.813C8.984,16.035 8.91,16.234 8.812,16.406C8.705,16.595 8.599,16.728 8.458,16.833ZM6.256,18.389C6.294,18.404 6.311,18.402 6.331,18.381C6.384,18.318 6.435,18.217 6.468,18.13C6.522,17.99 6.526,17.94 6.505,17.859C6.469,17.725 6.347,17.562 6.061,17.451C5.566,17.259 5.296,17.532 5.216,17.738C5.183,17.825 5.162,17.889 5.159,17.928C5.156,17.956 5.167,17.968 5.195,17.979L6.256,18.389ZM5.821,18.694C5.291,18.489 5.193,18.451 5.079,18.415C4.958,18.376 4.891,18.382 4.822,18.488C4.804,18.513 4.778,18.571 4.759,18.62C4.744,18.658 4.729,18.677 4.705,18.667C4.68,18.658 4.683,18.63 4.703,18.578C4.774,18.393 4.87,18.178 4.898,18.104C4.944,17.986 5.036,17.716 5.078,17.609C5.163,17.389 5.274,17.163 5.476,17.025C5.58,16.952 5.812,16.881 6.046,16.972C6.304,17.072 6.5,17.272 6.649,17.735C7.16,17.575 7.564,17.455 7.859,17.333C8.137,17.215 8.217,17.082 8.248,17.033C8.27,16.998 8.286,16.967 8.296,16.94C8.307,16.912 8.323,16.902 8.34,16.909C8.368,16.92 8.366,16.946 8.35,16.988L8.221,17.32C8.146,17.515 8.095,17.596 8.011,17.668C7.873,17.787 7.657,17.856 7.313,17.947C7.067,18.012 6.768,18.082 6.698,18.107C6.67,18.116 6.659,18.135 6.649,18.16L6.525,18.461C6.518,18.478 6.521,18.491 6.542,18.5L6.591,18.518C6.916,18.644 7.191,18.75 7.344,18.79C7.45,18.818 7.535,18.827 7.589,18.728C7.616,18.678 7.653,18.604 7.669,18.562C7.68,18.534 7.696,18.524 7.713,18.531C7.737,18.541 7.738,18.569 7.721,18.614C7.643,18.817 7.533,19.071 7.512,19.123C7.487,19.189 7.412,19.413 7.358,19.553C7.34,19.598 7.321,19.619 7.296,19.609C7.279,19.602 7.274,19.585 7.29,19.543C7.31,19.49 7.319,19.445 7.325,19.412C7.337,19.337 7.268,19.289 7.171,19.236C7.032,19.162 6.756,19.055 6.435,18.931L5.821,18.694ZM5.128,21.386C4.572,21.267 4.47,21.245 4.351,21.227C4.225,21.208 4.16,21.224 4.109,21.339C4.095,21.367 4.078,21.428 4.067,21.48C4.058,21.52 4.046,21.54 4.021,21.535C3.995,21.529 3.994,21.502 4.005,21.447C4.026,21.348 4.053,21.243 4.073,21.152C4.097,21.057 4.118,20.974 4.129,20.923C4.154,20.806 4.311,20.078 4.322,20.007C4.33,19.937 4.335,19.877 4.334,19.846C4.334,19.827 4.328,19.802 4.332,19.784C4.336,19.766 4.351,19.765 4.37,19.769C4.395,19.775 4.435,19.802 4.601,19.849C4.637,19.861 4.796,19.903 4.838,19.92C4.856,19.927 4.876,19.939 4.871,19.965C4.865,19.99 4.846,19.994 4.812,19.987C4.787,19.981 4.724,19.971 4.676,19.981C4.605,19.992 4.553,20.019 4.492,20.197C4.471,20.258 4.381,20.64 4.366,20.713C4.362,20.732 4.371,20.741 4.397,20.747L5.322,20.946C5.348,20.951 5.363,20.951 5.368,20.929C5.385,20.848 5.476,20.428 5.486,20.342C5.498,20.253 5.499,20.195 5.469,20.155C5.445,20.123 5.43,20.104 5.434,20.086C5.437,20.071 5.447,20.062 5.469,20.067C5.491,20.071 5.546,20.099 5.729,20.153C5.802,20.172 5.946,20.215 5.972,20.22C6,20.227 6.041,20.235 6.034,20.268C6.028,20.294 6.012,20.298 5.994,20.294C5.957,20.29 5.909,20.28 5.859,20.281C5.782,20.283 5.716,20.322 5.672,20.455C5.65,20.523 5.569,20.884 5.55,20.972C5.546,20.99 5.56,20.997 5.582,21.002L5.871,21.064C5.995,21.09 6.331,21.166 6.437,21.185C6.691,21.233 6.759,21.186 6.839,20.813C6.86,20.717 6.893,20.564 6.869,20.46C6.846,20.355 6.778,20.295 6.634,20.236C6.595,20.221 6.582,20.21 6.587,20.185C6.594,20.155 6.623,20.162 6.66,20.17C6.744,20.188 6.986,20.27 7.056,20.304C7.145,20.35 7.138,20.383 7.108,20.522C7.049,20.796 6.999,20.996 6.961,21.152C6.92,21.308 6.892,21.421 6.869,21.531C6.86,21.571 6.843,21.651 6.828,21.74C6.809,21.824 6.796,21.921 6.78,21.994C6.77,22.042 6.754,22.065 6.728,22.059C6.71,22.055 6.702,22.038 6.711,21.994C6.723,21.94 6.726,21.894 6.725,21.859C6.726,21.783 6.65,21.748 6.547,21.71C6.397,21.659 6.108,21.597 5.771,21.525L5.128,21.386ZM4.07,24.696C3.86,24.769 3.814,24.83 3.769,24.962C3.75,25.017 3.746,25.076 3.745,25.106C3.742,25.14 3.73,25.15 3.708,25.149C3.678,25.147 3.677,25.106 3.681,25.05C3.693,24.852 3.718,24.64 3.726,24.509C3.732,24.416 3.732,24.236 3.745,24.049C3.748,24.004 3.757,23.964 3.784,23.965C3.81,23.967 3.816,23.99 3.813,24.024C3.81,24.084 3.81,24.14 3.831,24.171C3.847,24.198 3.873,24.212 3.906,24.213C3.955,24.216 4.062,24.19 4.199,24.146L5.935,23.612L5.936,23.597C5.536,23.411 4.365,22.848 4.124,22.743C4.077,22.721 4.022,22.703 3.988,22.701C3.958,22.699 3.927,22.712 3.914,22.745C3.896,22.789 3.889,22.844 3.886,22.893C3.884,22.926 3.878,22.956 3.852,22.954C3.822,22.953 3.817,22.919 3.821,22.848C3.833,22.661 3.854,22.505 3.857,22.457C3.862,22.393 3.862,22.217 3.869,22.105C3.872,22.056 3.881,22.027 3.908,22.028C3.934,22.03 3.939,22.053 3.937,22.09C3.935,22.128 3.93,22.206 3.97,22.276C4,22.327 4.061,22.387 4.293,22.503C4.635,22.671 4.83,22.784 5.276,23.015C5.806,23.289 6.202,23.491 6.383,23.585C6.593,23.695 6.651,23.722 6.648,23.774C6.645,23.822 6.591,23.841 6.412,23.901L4.07,24.696ZM4.871,26.375C4.303,26.411 4.199,26.417 4.08,26.432C3.954,26.448 3.892,26.489 3.879,26.572C3.87,26.614 3.87,26.663 3.873,26.708C3.875,26.745 3.869,26.767 3.839,26.769C3.816,26.771 3.807,26.742 3.803,26.682C3.794,26.541 3.791,26.304 3.784,26.196C3.778,26.103 3.753,25.883 3.744,25.741C3.741,25.693 3.747,25.662 3.769,25.661C3.799,25.659 3.808,25.681 3.81,25.718C3.812,25.755 3.818,25.785 3.828,25.83C3.853,25.929 3.918,25.956 4.05,25.954C4.169,25.954 4.274,25.948 4.841,25.912L5.499,25.87C5.861,25.847 6.155,25.829 6.315,25.803C6.415,25.786 6.48,25.755 6.488,25.643C6.493,25.59 6.495,25.507 6.491,25.452C6.489,25.41 6.499,25.391 6.518,25.39C6.543,25.388 6.557,25.418 6.559,25.459C6.575,25.705 6.579,25.94 6.585,26.042C6.59,26.128 6.616,26.362 6.626,26.511C6.629,26.559 6.62,26.587 6.593,26.588C6.575,26.589 6.562,26.575 6.56,26.53C6.556,26.474 6.545,26.43 6.536,26.397C6.517,26.323 6.452,26.304 6.343,26.3C6.185,26.292 5.89,26.31 5.528,26.333L4.871,26.375ZM6.675,29.718C6.958,29.649 7.043,29.581 7.053,29.502C7.061,29.435 7.049,29.365 7.037,29.306C7.028,29.266 7.03,29.243 7.052,29.238C7.081,29.232 7.096,29.263 7.107,29.314C7.159,29.551 7.18,29.7 7.195,29.769C7.203,29.802 7.251,29.971 7.293,30.162C7.303,30.209 7.307,30.243 7.274,30.25C7.252,30.254 7.24,30.234 7.232,30.198C7.222,30.15 7.204,30.086 7.178,30.038C7.127,29.949 7.019,29.958 6.7,30.023L4.531,30.465C4.458,30.481 4.404,30.481 4.396,30.445C4.387,30.405 4.427,30.362 4.479,30.285C4.517,30.231 4.991,29.545 5.403,28.895C5.597,28.592 6.015,27.984 6.06,27.909L6.056,27.891L4.424,28.288C4.202,28.339 4.14,28.388 4.123,28.484C4.113,28.544 4.132,28.63 4.143,28.682C4.153,28.726 4.145,28.743 4.123,28.748C4.094,28.754 4.082,28.714 4.069,28.66C4.028,28.47 4,28.293 3.983,28.216C3.974,28.175 3.933,28.04 3.894,27.86C3.883,27.812 3.879,27.775 3.908,27.769C3.93,27.764 3.946,27.784 3.956,27.828C3.963,27.864 3.97,27.893 3.991,27.934C4.042,28.031 4.125,28.043 4.331,28.002L6.644,27.536C6.724,27.518 6.76,27.526 6.768,27.558C6.776,27.599 6.746,27.652 6.714,27.701C6.546,27.978 6.17,28.551 5.877,29.013C5.57,29.499 5.203,30.004 5.147,30.085L5.15,30.095L6.675,29.718ZM6.818,33.54C6.295,33.763 6.199,33.805 6.092,33.859C5.978,33.916 5.935,33.967 5.959,34.09C5.964,34.121 5.986,34.181 6.007,34.229C6.023,34.267 6.025,34.291 6,34.3C5.977,34.311 5.959,34.291 5.937,34.238C5.859,34.056 5.777,33.836 5.732,33.732C5.697,33.65 5.594,33.437 5.541,33.314C5.519,33.262 5.516,33.235 5.54,33.225C5.563,33.214 5.58,33.232 5.594,33.267C5.61,33.304 5.623,33.324 5.647,33.362C5.704,33.448 5.774,33.45 5.897,33.405C6.01,33.365 6.107,33.324 6.629,33.1L7.11,32.894C7.609,32.679 7.776,32.49 7.841,32.263C7.902,32.053 7.848,31.89 7.797,31.773C7.733,31.622 7.605,31.457 7.409,31.379C7.139,31.27 6.825,31.392 6.471,31.545L6.041,31.728C5.519,31.953 5.422,31.994 5.315,32.047C5.202,32.105 5.159,32.156 5.183,32.279C5.188,32.31 5.209,32.37 5.226,32.408C5.242,32.445 5.244,32.469 5.22,32.479C5.196,32.49 5.179,32.468 5.158,32.42C5.083,32.244 5,32.023 4.999,32.02C4.981,31.978 4.878,31.766 4.821,31.633C4.8,31.586 4.796,31.558 4.821,31.548C4.845,31.538 4.86,31.555 4.878,31.596C4.894,31.634 4.907,31.654 4.931,31.692C4.988,31.777 5.058,31.78 5.182,31.735C5.294,31.695 5.391,31.653 5.913,31.429L6.281,31.272C6.663,31.108 7.084,30.972 7.456,31.155C7.77,31.309 7.914,31.541 8.009,31.763C8.087,31.946 8.218,32.28 8.099,32.629C8.016,32.872 7.818,33.111 7.319,33.325L6.818,33.54Z" style="fill:rgb(35,31,32);fill-rule:nonzero;"/>
    </g>
</svg>
